<svg width="302" height="54" viewBox="0 0 302 54" fill="none" xmlns="http://www.w3.org/2000/svg">
<path d="M53.0947 2.80156C54.9585 1.00428 57.4468 0 60.036 0H292C297.523 0 302 4.47715 302 10V44C302 49.5228 297.523 54 292 54H12.3884C7.88991 54 5.6795 48.5233 8.91771 45.4008L53.0947 2.80156Z" fill="url(#paint0_linear_29_34)"/>
<mask id="path-2-outside-1_29_34" maskUnits="userSpaceOnUse" x="126" y="16" width="79" height="22" fill="black">
<rect fill="white" x="126" y="16" width="79" height="22"/>
<path d="M130.048 35L137.728 18.2H139.48L147.16 35H145.288L138.232 19.232H138.952L131.896 35H130.048ZM133.072 30.512L133.6 29.072H143.368L143.896 30.512H133.072ZM151.523 25.712H160.403V27.224H151.523V25.712ZM151.715 33.464H161.819V35H149.939V18.2H161.459V19.736H151.715V33.464ZM173.315 35.144C172.035 35.144 170.851 34.936 169.763 34.52C168.691 34.088 167.755 33.488 166.955 32.72C166.171 31.952 165.555 31.048 165.107 30.008C164.675 28.968 164.459 27.832 164.459 26.6C164.459 25.368 164.675 24.232 165.107 23.192C165.555 22.152 166.179 21.248 166.979 20.48C167.779 19.712 168.715 19.12 169.787 18.704C170.875 18.272 172.059 18.056 173.339 18.056C174.619 18.056 175.787 18.256 176.843 18.656C177.915 19.056 178.827 19.664 179.579 20.48L178.475 21.608C177.771 20.904 176.995 20.4 176.147 20.096C175.299 19.792 174.387 19.64 173.411 19.64C172.371 19.64 171.411 19.816 170.531 20.168C169.667 20.504 168.907 20.992 168.251 21.632C167.611 22.256 167.107 22.992 166.739 23.84C166.387 24.672 166.211 25.592 166.211 26.6C166.211 27.592 166.387 28.512 166.739 29.36C167.107 30.208 167.611 30.952 168.251 31.592C168.907 32.216 169.667 32.704 170.531 33.056C171.411 33.392 172.363 33.56 173.387 33.56C174.347 33.56 175.251 33.416 176.099 33.128C176.963 32.84 177.755 32.352 178.475 31.664L179.483 33.008C178.683 33.712 177.747 34.248 176.675 34.616C175.603 34.968 174.483 35.144 173.315 35.144ZM177.779 32.792V26.6H179.483V33.008L177.779 32.792ZM184.509 35V18.2H186.285V35H184.509ZM196.384 35.144C195.136 35.144 193.936 34.944 192.784 34.544C191.648 34.128 190.768 33.6 190.144 32.96L190.84 31.592C191.432 32.168 192.224 32.656 193.216 33.056C194.224 33.44 195.28 33.632 196.384 33.632C197.44 33.632 198.296 33.504 198.952 33.248C199.624 32.976 200.112 32.616 200.416 32.168C200.736 31.72 200.896 31.224 200.896 30.68C200.896 30.024 200.704 29.496 200.32 29.096C199.952 28.696 199.464 28.384 198.856 28.16C198.248 27.92 197.576 27.712 196.84 27.536C196.104 27.36 195.368 27.176 194.632 26.984C193.896 26.776 193.216 26.504 192.592 26.168C191.984 25.832 191.488 25.392 191.104 24.848C190.736 24.288 190.552 23.56 190.552 22.664C190.552 21.832 190.768 21.072 191.2 20.384C191.648 19.68 192.328 19.12 193.24 18.704C194.152 18.272 195.32 18.056 196.744 18.056C197.688 18.056 198.624 18.192 199.552 18.464C200.48 18.72 201.28 19.08 201.952 19.544L201.352 20.96C200.632 20.48 199.864 20.128 199.048 19.904C198.248 19.68 197.472 19.568 196.72 19.568C195.712 19.568 194.88 19.704 194.224 19.976C193.568 20.248 193.08 20.616 192.76 21.08C192.456 21.528 192.304 22.04 192.304 22.616C192.304 23.272 192.488 23.8 192.856 24.2C193.24 24.6 193.736 24.912 194.344 25.136C194.968 25.36 195.648 25.56 196.384 25.736C197.12 25.912 197.848 26.104 198.568 26.312C199.304 26.52 199.976 26.792 200.584 27.128C201.208 27.448 201.704 27.88 202.072 28.424C202.456 28.968 202.648 29.68 202.648 30.56C202.648 31.376 202.424 32.136 201.976 32.84C201.528 33.528 200.84 34.088 199.912 34.52C199 34.936 197.824 35.144 196.384 35.144Z"/>
</mask>
<path d="M130.048 35L137.728 18.2H139.48L147.16 35H145.288L138.232 19.232H138.952L131.896 35H130.048ZM133.072 30.512L133.6 29.072H143.368L143.896 30.512H133.072ZM151.523 25.712H160.403V27.224H151.523V25.712ZM151.715 33.464H161.819V35H149.939V18.2H161.459V19.736H151.715V33.464ZM173.315 35.144C172.035 35.144 170.851 34.936 169.763 34.52C168.691 34.088 167.755 33.488 166.955 32.72C166.171 31.952 165.555 31.048 165.107 30.008C164.675 28.968 164.459 27.832 164.459 26.6C164.459 25.368 164.675 24.232 165.107 23.192C165.555 22.152 166.179 21.248 166.979 20.48C167.779 19.712 168.715 19.12 169.787 18.704C170.875 18.272 172.059 18.056 173.339 18.056C174.619 18.056 175.787 18.256 176.843 18.656C177.915 19.056 178.827 19.664 179.579 20.48L178.475 21.608C177.771 20.904 176.995 20.4 176.147 20.096C175.299 19.792 174.387 19.64 173.411 19.64C172.371 19.64 171.411 19.816 170.531 20.168C169.667 20.504 168.907 20.992 168.251 21.632C167.611 22.256 167.107 22.992 166.739 23.84C166.387 24.672 166.211 25.592 166.211 26.6C166.211 27.592 166.387 28.512 166.739 29.36C167.107 30.208 167.611 30.952 168.251 31.592C168.907 32.216 169.667 32.704 170.531 33.056C171.411 33.392 172.363 33.56 173.387 33.56C174.347 33.56 175.251 33.416 176.099 33.128C176.963 32.84 177.755 32.352 178.475 31.664L179.483 33.008C178.683 33.712 177.747 34.248 176.675 34.616C175.603 34.968 174.483 35.144 173.315 35.144ZM177.779 32.792V26.6H179.483V33.008L177.779 32.792ZM184.509 35V18.2H186.285V35H184.509ZM196.384 35.144C195.136 35.144 193.936 34.944 192.784 34.544C191.648 34.128 190.768 33.6 190.144 32.96L190.84 31.592C191.432 32.168 192.224 32.656 193.216 33.056C194.224 33.44 195.28 33.632 196.384 33.632C197.44 33.632 198.296 33.504 198.952 33.248C199.624 32.976 200.112 32.616 200.416 32.168C200.736 31.72 200.896 31.224 200.896 30.68C200.896 30.024 200.704 29.496 200.32 29.096C199.952 28.696 199.464 28.384 198.856 28.16C198.248 27.92 197.576 27.712 196.84 27.536C196.104 27.36 195.368 27.176 194.632 26.984C193.896 26.776 193.216 26.504 192.592 26.168C191.984 25.832 191.488 25.392 191.104 24.848C190.736 24.288 190.552 23.56 190.552 22.664C190.552 21.832 190.768 21.072 191.2 20.384C191.648 19.68 192.328 19.12 193.24 18.704C194.152 18.272 195.32 18.056 196.744 18.056C197.688 18.056 198.624 18.192 199.552 18.464C200.48 18.72 201.28 19.08 201.952 19.544L201.352 20.96C200.632 20.48 199.864 20.128 199.048 19.904C198.248 19.68 197.472 19.568 196.72 19.568C195.712 19.568 194.88 19.704 194.224 19.976C193.568 20.248 193.08 20.616 192.76 21.08C192.456 21.528 192.304 22.04 192.304 22.616C192.304 23.272 192.488 23.8 192.856 24.2C193.24 24.6 193.736 24.912 194.344 25.136C194.968 25.36 195.648 25.56 196.384 25.736C197.12 25.912 197.848 26.104 198.568 26.312C199.304 26.52 199.976 26.792 200.584 27.128C201.208 27.448 201.704 27.88 202.072 28.424C202.456 28.968 202.648 29.68 202.648 30.56C202.648 31.376 202.424 32.136 201.976 32.84C201.528 33.528 200.84 34.088 199.912 34.52C199 34.936 197.824 35.144 196.384 35.144Z" fill="#8AFBFF"/>
<path d="M130.048 35L128.229 34.1685L126.935 37H130.048V35ZM137.728 18.2V16.2H136.443L135.909 17.3685L137.728 18.2ZM139.48 18.2L141.299 17.3685L140.765 16.2H139.48V18.2ZM147.16 35V37H150.273L148.979 34.1685L147.16 35ZM145.288 35L143.462 35.8169L143.992 37H145.288V35ZM138.232 19.232V17.232H135.146L136.406 20.0489L138.232 19.232ZM138.952 19.232L140.778 20.0489L142.038 17.232H138.952V19.232ZM131.896 35V37H133.192L133.722 35.8169L131.896 35ZM133.072 30.512L131.194 29.8235L130.208 32.512H133.072V30.512ZM133.6 29.072V27.072H132.203L131.722 28.3835L133.6 29.072ZM143.368 29.072L145.246 28.3835L144.765 27.072H143.368V29.072ZM143.896 30.512V32.512H146.76L145.774 29.8235L143.896 30.512ZM130.048 35L131.867 35.8315L139.547 19.0315L137.728 18.2L135.909 17.3685L128.229 34.1685L130.048 35ZM137.728 18.2V20.2H139.48V18.2V16.2H137.728V18.2ZM139.48 18.2L137.661 19.0315L145.341 35.8315L147.16 35L148.979 34.1685L141.299 17.3685L139.48 18.2ZM147.16 35V33H145.288V35V37H147.16V35ZM145.288 35L147.114 34.1831L140.058 18.4151L138.232 19.232L136.406 20.0489L143.462 35.8169L145.288 35ZM138.232 19.232V21.232H138.952V19.232V17.232H138.232V19.232ZM138.952 19.232L137.126 18.4151L130.07 34.1831L131.896 35L133.722 35.8169L140.778 20.0489L138.952 19.232ZM131.896 35V33H130.048V35V37H131.896V35ZM133.072 30.512L134.95 31.2005L135.478 29.7605L133.6 29.072L131.722 28.3835L131.194 29.8235L133.072 30.512ZM133.6 29.072V31.072H143.368V29.072V27.072H133.6V29.072ZM143.368 29.072L141.49 29.7605L142.018 31.2005L143.896 30.512L145.774 29.8235L145.246 28.3835L143.368 29.072ZM143.896 30.512V28.512H133.072V30.512V32.512H143.896V30.512ZM151.523 25.712V23.712H149.523V25.712H151.523ZM160.403 25.712H162.403V23.712H160.403V25.712ZM160.403 27.224V29.224H162.403V27.224H160.403ZM151.523 27.224H149.523V29.224H151.523V27.224ZM151.715 33.464H149.715V35.464H151.715V33.464ZM161.819 33.464H163.819V31.464H161.819V33.464ZM161.819 35V37H163.819V35H161.819ZM149.939 35H147.939V37H149.939V35ZM149.939 18.2V16.2H147.939V18.2H149.939ZM161.459 18.2H163.459V16.2H161.459V18.2ZM161.459 19.736V21.736H163.459V19.736H161.459ZM151.715 19.736V17.736H149.715V19.736H151.715ZM151.523 25.712V27.712H160.403V25.712V23.712H151.523V25.712ZM160.403 25.712H158.403V27.224H160.403H162.403V25.712H160.403ZM160.403 27.224V25.224H151.523V27.224V29.224H160.403V27.224ZM151.523 27.224H153.523V25.712H151.523H149.523V27.224H151.523ZM151.715 33.464V35.464H161.819V33.464V31.464H151.715V33.464ZM161.819 33.464H159.819V35H161.819H163.819V33.464H161.819ZM161.819 35V33H149.939V35V37H161.819V35ZM149.939 35H151.939V18.2H149.939H147.939V35H149.939ZM149.939 18.2V20.2H161.459V18.2V16.2H149.939V18.2ZM161.459 18.2H159.459V19.736H161.459H163.459V18.2H161.459ZM161.459 19.736V17.736H151.715V19.736V21.736H161.459V19.736ZM151.715 19.736H149.715V33.464H151.715H153.715V19.736H151.715ZM169.763 34.52L169.015 36.375L169.032 36.3817L169.049 36.3881L169.763 34.52ZM166.955 32.72L165.555 34.1487L165.563 34.1558L165.57 34.1628L166.955 32.72ZM165.107 30.008L163.26 30.7752L163.265 30.7873L163.27 30.7992L165.107 30.008ZM165.107 23.192L163.27 22.4008L163.265 22.4127L163.26 22.4248L165.107 23.192ZM166.979 20.48L168.364 21.9228V21.9228L166.979 20.48ZM169.787 18.704L170.51 20.5685L170.518 20.5657L170.525 20.5628L169.787 18.704ZM176.843 18.656L176.134 20.5263L176.144 20.5298L176.843 18.656ZM179.579 20.48L181.008 21.8789L182.337 20.5214L181.05 19.1246L179.579 20.48ZM178.475 21.608L177.061 23.0222L178.49 24.4517L179.904 23.0069L178.475 21.608ZM176.147 20.096L176.822 18.2133V18.2133L176.147 20.096ZM170.531 20.168L171.256 22.032L171.265 22.0285L171.274 22.025L170.531 20.168ZM168.251 21.632L169.647 23.064L169.648 23.0636L168.251 21.632ZM166.739 23.84L164.904 23.0438L164.901 23.0522L164.897 23.0607L166.739 23.84ZM166.739 29.36L164.892 30.1268L164.898 30.1415L164.904 30.1562L166.739 29.36ZM168.251 31.592L166.837 33.0062L166.854 33.0239L166.873 33.0411L168.251 31.592ZM170.531 33.056L169.776 34.9082L169.797 34.9165L169.818 34.9244L170.531 33.056ZM176.099 33.128L175.466 31.2306L175.456 31.2342L176.099 33.128ZM178.475 31.664L180.075 30.464L178.723 28.661L177.093 30.218L178.475 31.664ZM179.483 33.008L180.804 34.5094L182.193 33.2876L181.083 31.808L179.483 33.008ZM176.675 34.616L177.299 36.5162L177.312 36.512L177.324 36.5076L176.675 34.616ZM177.779 32.792H175.779V34.5545L177.527 34.7761L177.779 32.792ZM177.779 26.6V24.6H175.779V26.6H177.779ZM179.483 26.6H181.483V24.6H179.483V26.6ZM179.483 33.008L179.231 34.9921L181.483 35.2775V33.008H179.483ZM173.315 35.144V33.144C172.255 33.144 171.316 32.9725 170.477 32.6519L169.763 34.52L169.049 36.3881C170.386 36.8995 171.815 37.144 173.315 37.144V35.144ZM169.763 34.52L170.51 32.665C169.665 32.3243 168.948 31.8609 168.34 31.2772L166.955 32.72L165.57 34.1628C166.562 35.1151 167.717 35.8517 169.015 36.375L169.763 34.52ZM166.955 32.72L168.354 31.2913C167.762 30.7111 167.292 30.0256 166.944 29.2168L165.107 30.008L163.27 30.7992C163.818 32.0704 164.58 33.1929 165.555 34.1487L166.955 32.72ZM165.107 30.008L166.954 29.2408C166.632 28.4659 166.459 27.5936 166.459 26.6H164.459H162.459C162.459 28.0704 162.718 29.4701 163.26 30.7752L165.107 30.008ZM164.459 26.6H166.459C166.459 25.6064 166.632 24.7341 166.954 23.9592L165.107 23.192L163.26 22.4248C162.718 23.7299 162.459 25.1296 162.459 26.6H164.459ZM165.107 23.192L166.944 23.9832C167.288 23.1831 167.761 22.502 168.364 21.9228L166.979 20.48L165.594 19.0372C164.597 19.994 163.821 21.1209 163.27 22.4008L165.107 23.192ZM166.979 20.48L168.364 21.9228C168.966 21.3444 169.675 20.8926 170.51 20.5685L169.787 18.704L169.063 16.8395C167.754 17.3474 166.591 18.0796 165.594 19.0372L166.979 20.48ZM169.787 18.704L170.525 20.5628C171.357 20.2325 172.288 20.056 173.339 20.056V18.056V16.056C171.83 16.056 170.393 16.3115 169.049 16.8452L169.787 18.704ZM173.339 18.056V20.056C174.409 20.056 175.333 20.2227 176.134 20.5263L176.843 18.656L177.551 16.7857C176.241 16.2893 174.829 16.056 173.339 16.056V18.056ZM176.843 18.656L176.144 20.5298C176.931 20.8235 177.576 21.2577 178.108 21.8354L179.579 20.48L181.05 19.1246C180.078 18.0703 178.899 17.2885 177.542 16.7822L176.843 18.656ZM179.579 20.48L178.15 19.0811L177.046 20.2091L178.475 21.608L179.904 23.0069L181.008 21.8789L179.579 20.48ZM178.475 21.608L179.889 20.1938C178.999 19.3032 177.976 18.6271 176.822 18.2133L176.147 20.096L175.472 21.9787C176.014 22.1729 176.543 22.5048 177.061 23.0222L178.475 21.608ZM176.147 20.096L176.822 18.2133C175.74 17.8255 174.598 17.64 173.411 17.64V19.64V21.64C174.176 21.64 174.858 21.7585 175.472 21.9787L176.147 20.096ZM173.411 19.64V17.64C172.141 17.64 170.926 17.8557 169.788 18.311L170.531 20.168L171.274 22.025C171.895 21.7762 172.601 21.64 173.411 21.64V19.64ZM170.531 20.168L169.806 18.304C168.694 18.7363 167.705 19.3704 166.854 20.2004L168.251 21.632L169.648 23.0636C170.109 22.6136 170.64 22.2717 171.256 22.032L170.531 20.168ZM168.251 21.632L166.855 20.2C166.022 21.0117 165.372 21.9657 164.904 23.0438L166.739 23.84L168.574 24.6362C168.842 24.0183 169.2 23.5003 169.647 23.064L168.251 21.632ZM166.739 23.84L164.897 23.0607C164.429 24.1663 164.211 25.3553 164.211 26.6H166.211H168.211C168.211 25.8287 168.345 25.1777 168.581 24.6193L166.739 23.84ZM166.211 26.6H164.211C164.211 27.8338 164.431 29.0167 164.892 30.1268L166.739 29.36L168.586 28.5932C168.343 28.0073 168.211 27.3502 168.211 26.6H166.211ZM166.739 29.36L164.904 30.1562C165.37 31.2298 166.015 32.1846 166.837 33.0062L168.251 31.592L169.665 30.1778C169.207 29.7194 168.844 29.1862 168.574 28.5638L166.739 29.36ZM168.251 31.592L166.873 33.0411C167.715 33.8425 168.688 34.4649 169.776 34.9082L170.531 33.056L171.286 31.2038C170.646 30.9431 170.099 30.5895 169.629 30.1429L168.251 31.592ZM170.531 33.056L169.818 34.9244C170.944 35.3547 172.14 35.56 173.387 35.56V33.56V31.56C172.585 31.56 171.877 31.4293 171.244 31.1876L170.531 33.056ZM173.387 33.56V35.56C174.55 35.56 175.673 35.385 176.742 35.0218L176.099 33.128L175.456 31.2342C174.829 31.447 174.144 31.56 173.387 31.56V33.56ZM176.099 33.128L176.731 35.0254C177.901 34.6356 178.943 33.9826 179.857 33.11L178.475 31.664L177.093 30.218C176.566 30.7214 176.025 31.0444 175.466 31.2306L176.099 33.128ZM178.475 31.664L176.875 32.864L177.883 34.208L179.483 33.008L181.083 31.808L180.075 30.464L178.475 31.664ZM179.483 33.008L178.162 31.5066C177.57 32.027 176.866 32.4358 176.026 32.7244L176.675 34.616L177.324 36.5076C178.628 36.0602 179.796 35.397 180.804 34.5094L179.483 33.008ZM176.675 34.616L176.051 32.7158C175.187 32.9994 174.279 33.144 173.315 33.144V35.144V37.144C174.687 37.144 176.018 36.9366 177.299 36.5162L176.675 34.616ZM177.779 32.792H179.779V26.6H177.779H175.779V32.792H177.779ZM177.779 26.6V28.6H179.483V26.6V24.6H177.779V26.6ZM179.483 26.6H177.483V33.008H179.483H181.483V26.6H179.483ZM179.483 33.008L179.734 31.0239L178.03 30.8079L177.779 32.792L177.527 34.7761L179.231 34.9921L179.483 33.008ZM184.509 35H182.509V37H184.509V35ZM184.509 18.2V16.2H182.509V18.2H184.509ZM186.285 18.2H188.285V16.2H186.285V18.2ZM186.285 35V37H188.285V35H186.285ZM184.509 35H186.509V18.2H184.509H182.509V35H184.509ZM184.509 18.2V20.2H186.285V18.2V16.2H184.509V18.2ZM186.285 18.2H184.285V35H186.285H188.285V18.2H186.285ZM186.285 35V33H184.509V35V37H186.285V35ZM192.784 34.544L192.096 36.422L192.112 36.4278L192.128 36.4333L192.784 34.544ZM190.144 32.96L188.361 32.0531L187.711 33.3302L188.712 34.3562L190.144 32.96ZM190.84 31.592L192.234 30.1585L190.288 28.2651L189.057 30.6851L190.84 31.592ZM193.216 33.056L192.468 34.9109L192.486 34.9181L192.504 34.925L193.216 33.056ZM198.952 33.248L199.679 35.1112L199.69 35.1066L199.702 35.1019L198.952 33.248ZM200.416 32.168L198.788 31.0055L198.774 31.0251L198.761 31.045L200.416 32.168ZM200.32 29.096L198.848 30.4501L198.862 30.4657L198.877 30.4811L200.32 29.096ZM198.856 28.16L198.121 30.0203L198.143 30.0287L198.164 30.0367L198.856 28.16ZM194.632 26.984L194.088 28.9086L194.107 28.9141L194.127 28.9192L194.632 26.984ZM192.592 26.168L191.624 27.9185L191.634 27.9238L191.643 27.9289L192.592 26.168ZM191.104 24.848L189.432 25.9464L189.45 25.9742L189.47 26.0014L191.104 24.848ZM191.2 20.384L189.512 19.3102L189.506 19.3205L191.2 20.384ZM193.24 18.704L194.07 20.5236L194.083 20.5177L194.096 20.5115L193.24 18.704ZM199.552 18.464L198.989 20.3833L199.004 20.3877L199.02 20.392L199.552 18.464ZM201.952 19.544L203.793 20.3243L204.429 18.824L203.088 17.8982L201.952 19.544ZM201.352 20.96L200.242 22.6241L202.251 23.9634L203.193 21.7403L201.352 20.96ZM199.048 19.904L198.508 21.83L198.518 21.8327L199.048 19.904ZM194.224 19.976L193.458 18.1285V18.1285L194.224 19.976ZM192.76 21.08L191.113 19.9445L191.109 19.9507L191.105 19.957L192.76 21.08ZM192.856 24.2L191.384 25.5541L191.398 25.5697L191.413 25.5851L192.856 24.2ZM194.344 25.136L193.652 27.0127L193.66 27.0156L193.668 27.0184L194.344 25.136ZM196.384 25.736L195.918 27.6812V27.6812L196.384 25.736ZM198.568 26.312L198.013 28.2335L198.024 28.2366L198.568 26.312ZM200.584 27.128L199.616 28.8785L199.643 28.8935L199.671 28.9076L200.584 27.128ZM202.072 28.424L200.415 29.5446L200.426 29.5611L200.438 29.5774L202.072 28.424ZM201.976 32.84L203.652 33.9313L203.657 33.9226L203.663 33.9138L201.976 32.84ZM199.912 34.52L200.742 36.3396L200.749 36.3364L200.756 36.3332L199.912 34.52ZM196.384 35.144V33.144C195.354 33.144 194.376 32.9797 193.44 32.6547L192.784 34.544L192.128 36.4333C193.496 36.9083 194.918 37.144 196.384 37.144V35.144ZM192.784 34.544L193.471 32.666C192.522 32.3184 191.93 31.9277 191.576 31.5638L190.144 32.96L188.712 34.3562C189.605 35.2723 190.773 35.9376 192.096 36.422L192.784 34.544ZM190.144 32.96L191.926 33.8669L192.622 32.4989L190.84 31.592L189.057 30.6851L188.361 32.0531L190.144 32.96ZM190.84 31.592L189.445 33.0255C190.269 33.8274 191.303 34.4411 192.468 34.9109L193.216 33.056L193.964 31.2011C193.145 30.8709 192.594 30.5086 192.234 30.1585L190.84 31.592ZM193.216 33.056L192.504 34.925C193.744 35.3976 195.042 35.632 196.384 35.632V33.632V31.632C195.517 31.632 194.703 31.4824 193.928 31.187L193.216 33.056ZM196.384 33.632V35.632C197.576 35.632 198.705 35.491 199.679 35.1112L198.952 33.248L198.225 31.3848C197.886 31.517 197.303 31.632 196.384 31.632V33.632ZM198.952 33.248L199.702 35.1019C200.619 34.7306 201.48 34.161 202.071 33.291L200.416 32.168L198.761 31.045C198.743 31.071 198.628 31.2214 198.201 31.3941L198.952 33.248ZM200.416 32.168L202.043 33.3305C202.602 32.5477 202.896 31.6462 202.896 30.68H200.896H198.896C198.896 30.8018 198.869 30.8923 198.788 31.0055L200.416 32.168ZM200.896 30.68H202.896C202.896 29.6087 202.568 28.5504 201.762 27.7109L200.32 29.096L198.877 30.4811C198.878 30.4818 198.875 30.4793 198.872 30.4747C198.87 30.4702 198.87 30.4694 198.872 30.4755C198.876 30.4871 198.896 30.5468 198.896 30.68H200.896ZM200.32 29.096L201.791 27.7419C201.171 27.0674 200.396 26.5961 199.547 26.2833L198.856 28.16L198.164 30.0367C198.531 30.1719 198.732 30.3246 198.848 30.4501L200.32 29.096ZM198.856 28.16L199.59 26.2997C198.882 26.0202 198.118 25.7854 197.305 25.5908L196.84 27.536L196.374 29.4812C197.033 29.6386 197.613 29.8198 198.121 30.0203L198.856 28.16ZM196.84 27.536L197.305 25.5908C196.582 25.418 195.859 25.2373 195.136 25.0488L194.632 26.984L194.127 28.9192C194.876 29.1147 195.625 29.302 196.374 29.4812L196.84 27.536ZM194.632 26.984L195.176 25.0594C194.569 24.8879 194.026 24.6687 193.54 24.4071L192.592 26.168L191.643 27.9289C192.405 28.3393 193.222 28.6641 194.088 28.9086L194.632 26.984ZM192.592 26.168L193.559 24.4175C193.204 24.2212 192.94 23.9811 192.738 23.6946L191.104 24.848L189.47 26.0014C190.036 26.8029 190.764 27.4428 191.624 27.9185L192.592 26.168ZM191.104 24.848L192.775 23.7496C192.683 23.6089 192.552 23.2983 192.552 22.664H190.552H188.552C188.552 23.8217 188.789 24.9671 189.432 25.9464L191.104 24.848ZM190.552 22.664H192.552C192.552 22.1987 192.667 21.8089 192.893 21.4475L191.2 20.384L189.506 19.3205C188.869 20.3351 188.552 21.4653 188.552 22.664H190.552ZM191.2 20.384L192.887 21.4577C193.089 21.1407 193.438 20.8118 194.07 20.5236L193.24 18.704L192.41 16.8844C191.217 17.4282 190.207 18.2193 189.512 19.3102L191.2 20.384ZM193.24 18.704L194.096 20.5115C194.654 20.2472 195.502 20.056 196.744 20.056V18.056V16.056C195.137 16.056 193.65 16.2967 192.383 16.8965L193.24 18.704ZM196.744 18.056V20.056C197.493 20.056 198.239 20.1635 198.989 20.3833L199.552 18.464L200.114 16.5447C199.008 16.2205 197.883 16.056 196.744 16.056V18.056ZM199.552 18.464L199.02 20.392C199.77 20.5988 200.357 20.8735 200.815 21.1898L201.952 19.544L203.088 17.8982C202.202 17.2865 201.19 16.8412 200.083 16.536L199.552 18.464ZM201.952 19.544L200.11 18.7637L199.51 20.1797L201.352 20.96L203.193 21.7403L203.793 20.3243L201.952 19.544ZM201.352 20.96L202.461 19.2959C201.567 18.7 200.604 18.2572 199.577 17.9753L199.048 19.904L198.518 21.8327C199.123 21.9988 199.696 22.26 200.242 22.6241L201.352 20.96ZM199.048 19.904L199.587 17.9781C198.63 17.71 197.672 17.568 196.72 17.568V19.568V21.568C197.271 21.568 197.866 21.65 198.508 21.8299L199.048 19.904ZM196.72 19.568V17.568C195.551 17.568 194.436 17.723 193.458 18.1285L194.224 19.976L194.99 21.8235C195.324 21.685 195.873 21.568 196.72 21.568V19.568ZM194.224 19.976L193.458 18.1285C192.538 18.5099 191.702 19.0902 191.113 19.9445L192.76 21.08L194.406 22.2155C194.457 22.1418 194.597 21.9861 194.99 21.8235L194.224 19.976ZM192.76 21.08L191.105 19.957C190.561 20.758 190.304 21.6665 190.304 22.616H192.304H194.304C194.304 22.4135 194.35 22.298 194.415 22.203L192.76 21.08ZM192.304 22.616H190.304C190.304 23.6641 190.609 24.7116 191.384 25.5541L192.856 24.2L194.327 22.8459C194.334 22.8528 194.335 22.8594 194.33 22.8458C194.323 22.8265 194.304 22.7579 194.304 22.616H192.304ZM192.856 24.2L191.413 25.5851C192.039 26.2377 192.807 26.7015 193.652 27.0127L194.344 25.136L195.035 23.2593C194.664 23.1225 194.44 22.9623 194.298 22.8149L192.856 24.2ZM194.344 25.136L193.668 27.0184C194.37 27.2703 195.121 27.4904 195.918 27.6812L196.384 25.736L196.849 23.7908C196.174 23.6296 195.566 23.4497 195.019 23.2536L194.344 25.136ZM196.384 25.736L195.918 27.6812C196.625 27.85 197.323 28.0341 198.013 28.2334L198.568 26.312L199.123 24.3906C198.373 24.1739 197.615 23.974 196.849 23.7908L196.384 25.736ZM198.568 26.312L198.024 28.2366C198.627 28.4071 199.155 28.6236 199.616 28.8785L200.584 27.128L201.551 25.3775C200.796 24.9604 199.98 24.6329 199.112 24.3874L198.568 26.312ZM200.584 27.128L199.671 28.9076C200.016 29.0848 200.248 29.2982 200.415 29.5446L202.072 28.424L203.728 27.3034C203.159 26.4618 202.399 25.8112 201.496 25.3484L200.584 27.128ZM202.072 28.424L200.438 29.5774C200.518 29.6905 200.648 29.9616 200.648 30.56H202.648H204.648C204.648 29.3984 204.394 28.2455 203.706 27.2706L202.072 28.424ZM202.648 30.56H200.648C200.648 30.9866 200.537 31.3755 200.288 31.7662L201.976 32.84L203.663 33.9138C204.31 32.8965 204.648 31.7654 204.648 30.56H202.648ZM201.976 32.84L200.3 31.7487C200.101 32.0538 199.74 32.394 199.068 32.7068L199.912 34.52L200.756 36.3332C201.94 35.782 202.954 35.0022 203.652 33.9313L201.976 32.84ZM199.912 34.52L199.082 32.7004C198.518 32.9574 197.653 33.144 196.384 33.144V35.144V37.144C197.994 37.144 199.481 36.9146 200.742 36.3396L199.912 34.52Z" fill="#039BE5" mask="url(#path-2-outside-1_29_34)"/>
<defs>
<linearGradient id="paint0_linear_29_34" x1="0" y1="27" x2="302" y2="27" gradientUnits="userSpaceOnUse">
<stop stop-color="#041423"/>
<stop offset="1" stop-color="#104E89"/>
</linearGradient>
</defs>
</svg>
