<svg width="240" height="43" viewBox="0 0 240 43" fill="none" xmlns="http://www.w3.org/2000/svg">
<path d="M0 10C0 4.47715 4.47715 0 10 0H227.026C231.602 0 233.774 5.63618 230.382 8.70675L195.357 40.4135C193.518 42.0782 191.126 43 188.646 43H10C4.47716 43 0 38.5228 0 33V10Z" fill="url(#paint0_linear_29_33)"/>
<mask id="path-2-outside-1_29_33" maskUnits="userSpaceOnUse" x="80" y="12" width="47" height="21" fill="black">
<rect fill="white" x="80" y="12" width="47" height="21"/>
<path d="M81.736 31V14.2H88.576C90.368 14.2 91.936 14.56 93.28 15.28C94.64 15.984 95.696 16.968 96.448 18.232C97.2 19.496 97.576 20.952 97.576 22.6C97.576 24.248 97.2 25.704 96.448 26.968C95.696 28.232 94.64 29.224 93.28 29.944C91.936 30.648 90.368 31 88.576 31H81.736ZM83.512 29.464H88.48C89.968 29.464 91.256 29.176 92.344 28.6C93.448 28.008 94.304 27.2 94.912 26.176C95.52 25.136 95.824 23.944 95.824 22.6C95.824 21.24 95.52 20.048 94.912 19.024C94.304 18 93.448 17.2 92.344 16.624C91.256 16.032 89.968 15.736 88.48 15.736H83.512V29.464ZM106.556 31.12C105.244 31.12 104.092 30.848 103.1 30.304C102.108 29.744 101.332 28.984 100.772 28.024C100.212 27.048 99.9321 25.936 99.9321 24.688C99.9321 23.44 100.196 22.336 100.724 21.376C101.268 20.416 102.004 19.664 102.932 19.12C103.876 18.56 104.932 18.28 106.1 18.28C107.284 18.28 108.332 18.552 109.244 19.096C110.172 19.624 110.9 20.376 111.428 21.352C111.956 22.312 112.22 23.424 112.22 24.688C112.22 24.768 112.212 24.856 112.196 24.952C112.196 25.032 112.196 25.12 112.196 25.216H101.228V23.944H111.284L110.612 24.448C110.612 23.536 110.412 22.728 110.012 22.024C109.628 21.304 109.1 20.744 108.428 20.344C107.756 19.944 106.98 19.744 106.1 19.744C105.236 19.744 104.46 19.944 103.772 20.344C103.084 20.744 102.548 21.304 102.164 22.024C101.78 22.744 101.588 23.568 101.588 24.496V24.76C101.588 25.72 101.796 26.568 102.212 27.304C102.644 28.024 103.236 28.592 103.988 29.008C104.756 29.408 105.628 29.608 106.604 29.608C107.372 29.608 108.084 29.472 108.74 29.2C109.412 28.928 109.988 28.512 110.468 27.952L111.428 29.056C110.868 29.728 110.164 30.24 109.316 30.592C108.484 30.944 107.564 31.12 106.556 31.12ZM115.977 31V16.816C115.977 15.696 116.305 14.792 116.961 14.104C117.617 13.416 118.561 13.072 119.793 13.072C120.273 13.072 120.737 13.136 121.185 13.264C121.633 13.392 122.009 13.592 122.313 13.864L121.737 15.136C121.497 14.928 121.217 14.776 120.897 14.68C120.577 14.568 120.233 14.512 119.865 14.512C119.145 14.512 118.593 14.712 118.209 15.112C117.825 15.512 117.633 16.104 117.633 16.888V18.808L117.681 19.6V31H115.977ZM113.721 19.816V18.4H121.521V19.816H113.721ZM123.825 31V18.4H125.529V31H123.825ZM124.689 15.616C124.337 15.616 124.041 15.496 123.801 15.256C123.561 15.016 123.441 14.728 123.441 14.392C123.441 14.056 123.561 13.776 123.801 13.552C124.041 13.312 124.337 13.192 124.689 13.192C125.041 13.192 125.337 13.304 125.577 13.528C125.817 13.752 125.937 14.032 125.937 14.368C125.937 14.72 125.817 15.016 125.577 15.256C125.353 15.496 125.057 15.616 124.689 15.616Z"/>
</mask>
<path d="M81.736 31V14.2H88.576C90.368 14.2 91.936 14.56 93.28 15.28C94.64 15.984 95.696 16.968 96.448 18.232C97.2 19.496 97.576 20.952 97.576 22.6C97.576 24.248 97.2 25.704 96.448 26.968C95.696 28.232 94.64 29.224 93.28 29.944C91.936 30.648 90.368 31 88.576 31H81.736ZM83.512 29.464H88.48C89.968 29.464 91.256 29.176 92.344 28.6C93.448 28.008 94.304 27.2 94.912 26.176C95.52 25.136 95.824 23.944 95.824 22.6C95.824 21.24 95.52 20.048 94.912 19.024C94.304 18 93.448 17.2 92.344 16.624C91.256 16.032 89.968 15.736 88.48 15.736H83.512V29.464ZM106.556 31.12C105.244 31.12 104.092 30.848 103.1 30.304C102.108 29.744 101.332 28.984 100.772 28.024C100.212 27.048 99.9321 25.936 99.9321 24.688C99.9321 23.44 100.196 22.336 100.724 21.376C101.268 20.416 102.004 19.664 102.932 19.12C103.876 18.56 104.932 18.28 106.1 18.28C107.284 18.28 108.332 18.552 109.244 19.096C110.172 19.624 110.9 20.376 111.428 21.352C111.956 22.312 112.22 23.424 112.22 24.688C112.22 24.768 112.212 24.856 112.196 24.952C112.196 25.032 112.196 25.12 112.196 25.216H101.228V23.944H111.284L110.612 24.448C110.612 23.536 110.412 22.728 110.012 22.024C109.628 21.304 109.1 20.744 108.428 20.344C107.756 19.944 106.98 19.744 106.1 19.744C105.236 19.744 104.46 19.944 103.772 20.344C103.084 20.744 102.548 21.304 102.164 22.024C101.78 22.744 101.588 23.568 101.588 24.496V24.76C101.588 25.72 101.796 26.568 102.212 27.304C102.644 28.024 103.236 28.592 103.988 29.008C104.756 29.408 105.628 29.608 106.604 29.608C107.372 29.608 108.084 29.472 108.74 29.2C109.412 28.928 109.988 28.512 110.468 27.952L111.428 29.056C110.868 29.728 110.164 30.24 109.316 30.592C108.484 30.944 107.564 31.12 106.556 31.12ZM115.977 31V16.816C115.977 15.696 116.305 14.792 116.961 14.104C117.617 13.416 118.561 13.072 119.793 13.072C120.273 13.072 120.737 13.136 121.185 13.264C121.633 13.392 122.009 13.592 122.313 13.864L121.737 15.136C121.497 14.928 121.217 14.776 120.897 14.68C120.577 14.568 120.233 14.512 119.865 14.512C119.145 14.512 118.593 14.712 118.209 15.112C117.825 15.512 117.633 16.104 117.633 16.888V18.808L117.681 19.6V31H115.977ZM113.721 19.816V18.4H121.521V19.816H113.721ZM123.825 31V18.4H125.529V31H123.825ZM124.689 15.616C124.337 15.616 124.041 15.496 123.801 15.256C123.561 15.016 123.441 14.728 123.441 14.392C123.441 14.056 123.561 13.776 123.801 13.552C124.041 13.312 124.337 13.192 124.689 13.192C125.041 13.192 125.337 13.304 125.577 13.528C125.817 13.752 125.937 14.032 125.937 14.368C125.937 14.72 125.817 15.016 125.577 15.256C125.353 15.496 125.057 15.616 124.689 15.616Z" fill="#80F6FB"/>
<path d="M81.736 31H80.736V32H81.736V31ZM81.736 14.2V13.2H80.736V14.2H81.736ZM93.28 15.28L92.8078 16.1615L92.814 16.1648L92.8203 16.1681L93.28 15.28ZM96.448 18.232L97.3074 17.7207V17.7207L96.448 18.232ZM96.448 26.968L97.3074 27.4793V27.4793L96.448 26.968ZM93.28 29.944L93.744 30.8298L93.7479 30.8278L93.28 29.944ZM83.512 29.464H82.512V30.464H83.512V29.464ZM92.344 28.6L92.8119 29.4838L92.8166 29.4813L92.344 28.6ZM94.912 26.176L95.7719 26.6866L95.7753 26.6807L94.912 26.176ZM94.912 19.024L95.7719 18.5135V18.5135L94.912 19.024ZM92.344 16.624L91.8661 17.5024L91.8737 17.5066L91.8814 17.5106L92.344 16.624ZM83.512 15.736V14.736H82.512V15.736H83.512ZM81.736 31H82.736V14.2H81.736H80.736V31H81.736ZM81.736 14.2V15.2H88.576V14.2V13.2H81.736V14.2ZM88.576 14.2V15.2C90.2322 15.2 91.6325 15.5319 92.8078 16.1615L93.28 15.28L93.7522 14.3985C92.2395 13.5881 90.5038 13.2 88.576 13.2V14.2ZM93.28 15.28L92.8203 16.1681C94.0217 16.79 94.9361 17.6465 95.5886 18.7433L96.448 18.232L97.3074 17.7207C96.4559 16.2895 95.2583 15.178 93.7397 14.3919L93.28 15.28ZM96.448 18.232L95.5886 18.7433C96.2378 19.8346 96.576 21.1098 96.576 22.6H97.576H98.576C98.576 20.7942 98.1622 19.1574 97.3074 17.7207L96.448 18.232ZM97.576 22.6H96.576C96.576 24.0902 96.2378 25.3654 95.5886 26.4567L96.448 26.968L97.3074 27.4793C98.1622 26.0426 98.576 24.4058 98.576 22.6H97.576ZM96.448 26.968L95.5886 26.4567C94.9349 27.5555 94.0177 28.4219 92.8121 29.0602L93.28 29.944L93.7479 30.8278C95.2623 30.0261 96.4571 28.9085 97.3074 27.4793L96.448 26.968ZM93.28 29.944L92.816 29.0582C91.639 29.6747 90.2356 30 88.576 30V31V32C90.5004 32 92.233 31.6213 93.744 30.8298L93.28 29.944ZM88.576 31V30H81.736V31V32H88.576V31ZM83.512 29.464V30.464H88.48V29.464V28.464H83.512V29.464ZM88.48 29.464V30.464C90.0973 30.464 91.5526 30.1505 92.8119 29.4838L92.344 28.6L91.8761 27.7162C90.9594 28.2015 89.8387 28.464 88.48 28.464V29.464ZM92.344 28.6L92.8166 29.4813C94.0723 28.8079 95.066 27.8753 95.7719 26.6865L94.912 26.176L94.0521 25.6655C93.542 26.5247 92.8237 27.2081 91.8714 27.7187L92.344 28.6ZM94.912 26.176L95.7753 26.6807C96.4829 25.4704 96.824 24.1004 96.824 22.6H95.824H94.824C94.824 23.7876 94.5571 24.8016 94.0487 25.6713L94.912 26.176ZM95.824 22.6H96.824C96.824 21.0863 96.484 19.7129 95.7719 18.5135L94.912 19.024L94.0521 19.5345C94.556 20.3831 94.824 21.3937 94.824 22.6H95.824ZM94.912 19.024L95.7719 18.5135C95.0645 17.3221 94.0675 16.3953 92.8066 15.7374L92.344 16.624L91.8814 17.5106C92.8285 18.0047 93.5435 18.6779 94.0521 19.5345L94.912 19.024ZM92.344 16.624L92.8219 15.7456C91.5605 15.0592 90.1015 14.736 88.48 14.736V15.736V16.736C89.8345 16.736 90.9515 17.0048 91.8661 17.5024L92.344 16.624ZM88.48 15.736V14.736H83.512V15.736V16.736H88.48V15.736ZM83.512 15.736H82.512V29.464H83.512H84.512V15.736H83.512ZM103.1 30.304L102.608 31.1749L102.619 31.1808L103.1 30.304ZM100.772 28.024L99.9047 28.5217L99.9083 28.5279L100.772 28.024ZM100.724 21.376L99.854 20.8829L99.8479 20.8941L100.724 21.376ZM102.932 19.12L103.438 19.9827L103.442 19.9801L102.932 19.12ZM109.244 19.096L108.732 19.9548L108.741 19.9601L108.75 19.9652L109.244 19.096ZM111.428 21.352L110.549 21.8278L110.552 21.8339L111.428 21.352ZM112.196 24.952L111.21 24.7876L111.196 24.8692V24.952H112.196ZM112.196 25.216V26.216H113.196V25.216H112.196ZM101.228 25.216H100.228V26.216H101.228V25.216ZM101.228 23.944V22.944H100.228V23.944H101.228ZM111.284 23.944L111.884 24.744L114.284 22.944H111.284V23.944ZM110.612 24.448H109.612V26.448L111.212 25.248L110.612 24.448ZM110.012 22.024L109.13 22.4946L109.136 22.5064L109.143 22.518L110.012 22.024ZM108.428 20.344L108.94 19.4847V19.4847L108.428 20.344ZM103.772 20.344L103.27 19.4795V19.4795L103.772 20.344ZM102.164 22.024L103.046 22.4946V22.4946L102.164 22.024ZM102.212 27.304L101.342 27.7961L101.348 27.8074L101.355 27.8185L102.212 27.304ZM103.988 29.008L103.504 29.883L103.515 29.8891L103.526 29.8949L103.988 29.008ZM108.74 29.2L108.365 28.273L108.357 28.2763L108.74 29.2ZM110.468 27.952L111.223 27.2958L110.463 26.4218L109.709 27.3012L110.468 27.952ZM111.428 29.056L112.196 29.6962L112.741 29.0422L112.183 28.3998L111.428 29.056ZM109.316 30.592L108.933 29.6684L108.926 29.671L109.316 30.592ZM106.556 31.12V30.12C105.385 30.12 104.404 29.8783 103.581 29.4272L103.1 30.304L102.619 31.1808C103.781 31.8177 105.103 32.12 106.556 32.12V31.12ZM103.1 30.304L103.592 29.4332C102.75 28.9581 102.104 28.323 101.636 27.5201L100.772 28.024L99.9083 28.5279C100.56 29.645 101.466 30.5299 102.609 31.1748L103.1 30.304ZM100.772 28.024L101.639 27.5263C101.176 26.7179 100.932 25.7809 100.932 24.688H99.9321H98.9321C98.9321 26.0911 99.2486 27.3781 99.9048 28.5217L100.772 28.024ZM99.9321 24.688H100.932C100.932 23.5848 101.164 22.6508 101.6 21.8579L100.724 21.376L99.8479 20.8941C99.228 22.0212 98.9321 23.2952 98.9321 24.688H99.9321ZM100.724 21.376L101.594 21.869C102.054 21.058 102.666 20.4353 103.438 19.9827L102.932 19.12L102.426 18.2573C101.343 18.8927 100.483 19.774 99.8541 20.883L100.724 21.376ZM102.932 19.12L103.442 19.9801C104.222 19.5176 105.1 19.28 106.1 19.28V18.28V17.28C104.765 17.28 103.53 17.6024 102.422 18.2599L102.932 19.12ZM106.1 18.28V19.28C107.125 19.28 107.992 19.5135 108.732 19.9548L109.244 19.096L109.756 18.2372C108.672 17.5905 107.443 17.28 106.1 17.28V18.28ZM109.244 19.096L108.75 19.9652C109.508 20.3969 110.106 21.0096 110.549 21.8278L111.428 21.352L112.308 20.8762C111.694 19.7424 110.836 18.8511 109.739 18.2268L109.244 19.096ZM111.428 21.352L110.552 21.8339C110.987 22.625 111.22 23.5664 111.22 24.688H112.22H113.22C113.22 23.2816 112.925 21.999 112.304 20.8701L111.428 21.352ZM112.22 24.688H111.22C111.22 24.7026 111.219 24.7347 111.21 24.7876L112.196 24.952L113.183 25.1164C113.206 24.9773 113.22 24.8334 113.22 24.688H112.22ZM112.196 24.952H111.196C111.196 24.9522 111.196 24.9523 111.196 24.9525C111.196 24.9526 111.196 24.9528 111.196 24.9529C111.196 24.9531 111.196 24.9533 111.196 24.9534C111.196 24.9536 111.196 24.9537 111.196 24.9539C111.196 24.954 111.196 24.9542 111.196 24.9543C111.196 24.9545 111.196 24.9547 111.196 24.9548C111.196 24.955 111.196 24.9551 111.196 24.9553C111.196 24.9554 111.196 24.9556 111.196 24.9558C111.196 24.9559 111.196 24.9561 111.196 24.9562C111.196 24.9564 111.196 24.9565 111.196 24.9567C111.196 24.9569 111.196 24.957 111.196 24.9572C111.196 24.9573 111.196 24.9575 111.196 24.9576C111.196 24.9578 111.196 24.958 111.196 24.9581C111.196 24.9583 111.196 24.9584 111.196 24.9586C111.196 24.9587 111.196 24.9589 111.196 24.9591C111.196 24.9592 111.196 24.9594 111.196 24.9595C111.196 24.9597 111.196 24.9598 111.196 24.96C111.196 24.9602 111.196 24.9603 111.196 24.9605C111.196 24.9606 111.196 24.9608 111.196 24.9609C111.196 24.9611 111.196 24.9613 111.196 24.9614C111.196 24.9616 111.196 24.9617 111.196 24.9619C111.196 24.962 111.196 24.9622 111.196 24.9624C111.196 24.9625 111.196 24.9627 111.196 24.9628C111.196 24.963 111.196 24.9631 111.196 24.9633C111.196 24.9635 111.196 24.9636 111.196 24.9638C111.196 24.9639 111.196 24.9641 111.196 24.9642C111.196 24.9644 111.196 24.9646 111.196 24.9647C111.196 24.9649 111.196 24.965 111.196 24.9652C111.196 24.9654 111.196 24.9655 111.196 24.9657C111.196 24.9658 111.196 24.966 111.196 24.9661C111.196 24.9663 111.196 24.9665 111.196 24.9666C111.196 24.9668 111.196 24.9669 111.196 24.9671C111.196 24.9673 111.196 24.9674 111.196 24.9676C111.196 24.9677 111.196 24.9679 111.196 24.968C111.196 24.9682 111.196 24.9684 111.196 24.9685C111.196 24.9687 111.196 24.9688 111.196 24.969C111.196 24.9692 111.196 24.9693 111.196 24.9695C111.196 24.9696 111.196 24.9698 111.196 24.9699C111.196 24.9701 111.196 24.9703 111.196 24.9704C111.196 24.9706 111.196 24.9707 111.196 24.9709C111.196 24.9711 111.196 24.9712 111.196 24.9714C111.196 24.9715 111.196 24.9717 111.196 24.9718C111.196 24.972 111.196 24.9722 111.196 24.9723C111.196 24.9725 111.196 24.9726 111.196 24.9728C111.196 24.973 111.196 24.9731 111.196 24.9733C111.196 24.9734 111.196 24.9736 111.196 24.9738C111.196 24.9739 111.196 24.9741 111.196 24.9742C111.196 24.9744 111.196 24.9746 111.196 24.9747C111.196 24.9749 111.196 24.975 111.196 24.9752C111.196 24.9753 111.196 24.9755 111.196 24.9757C111.196 24.9758 111.196 24.976 111.196 24.9761C111.196 24.9763 111.196 24.9765 111.196 24.9766C111.196 24.9768 111.196 24.9769 111.196 24.9771C111.196 24.9773 111.196 24.9774 111.196 24.9776C111.196 24.9777 111.196 24.9779 111.196 24.9781C111.196 24.9782 111.196 24.9784 111.196 24.9785C111.196 24.9787 111.196 24.9789 111.196 24.979C111.196 24.9792 111.196 24.9793 111.196 24.9795C111.196 24.9797 111.196 24.9798 111.196 24.98C111.196 24.9801 111.196 24.9803 111.196 24.9805C111.196 24.9806 111.196 24.9808 111.196 24.9809C111.196 24.9811 111.196 24.9813 111.196 24.9814C111.196 24.9816 111.196 24.9817 111.196 24.9819C111.196 24.9821 111.196 24.9822 111.196 24.9824C111.196 24.9825 111.196 24.9827 111.196 24.9829C111.196 24.983 111.196 24.9832 111.196 24.9833C111.196 24.9835 111.196 24.9837 111.196 24.9838C111.196 24.984 111.196 24.9841 111.196 24.9843C111.196 24.9845 111.196 24.9846 111.196 24.9848C111.196 24.9849 111.196 24.9851 111.196 24.9853C111.196 24.9854 111.196 24.9856 111.196 24.9857C111.196 24.9859 111.196 24.9861 111.196 24.9862C111.196 24.9864 111.196 24.9865 111.196 24.9867C111.196 24.9869 111.196 24.987 111.196 24.9872C111.196 24.9873 111.196 24.9875 111.196 24.9877C111.196 24.9878 111.196 24.988 111.196 24.9882C111.196 24.9883 111.196 24.9885 111.196 24.9886C111.196 24.9888 111.196 24.989 111.196 24.9891C111.196 24.9893 111.196 24.9894 111.196 24.9896C111.196 24.9898 111.196 24.9899 111.196 24.9901C111.196 24.9902 111.196 24.9904 111.196 24.9906C111.196 24.9907 111.196 24.9909 111.196 24.9911C111.196 24.9912 111.196 24.9914 111.196 24.9915C111.196 24.9917 111.196 24.9919 111.196 24.992C111.196 24.9922 111.196 24.9923 111.196 24.9925C111.196 24.9927 111.196 24.9928 111.196 24.993C111.196 24.9932 111.196 24.9933 111.196 24.9935C111.196 24.9936 111.196 24.9938 111.196 24.994C111.196 24.9941 111.196 24.9943 111.196 24.9944C111.196 24.9946 111.196 24.9948 111.196 24.9949C111.196 24.9951 111.196 24.9953 111.196 24.9954C111.196 24.9956 111.196 24.9957 111.196 24.9959C111.196 24.9961 111.196 24.9962 111.196 24.9964C111.196 24.9965 111.196 24.9967 111.196 24.9969C111.196 24.997 111.196 24.9972 111.196 24.9974C111.196 24.9975 111.196 24.9977 111.196 24.9978C111.196 24.998 111.196 24.9982 111.196 24.9983C111.196 24.9985 111.196 24.9987 111.196 24.9988C111.196 24.999 111.196 24.9991 111.196 24.9993C111.196 24.9995 111.196 24.9996 111.196 24.9998C111.196 25 111.196 25.0001 111.196 25.0003C111.196 25.0004 111.196 25.0006 111.196 25.0008C111.196 25.0009 111.196 25.0011 111.196 25.0013C111.196 25.0014 111.196 25.0016 111.196 25.0017C111.196 25.0019 111.196 25.0021 111.196 25.0022C111.196 25.0024 111.196 25.0026 111.196 25.0027C111.196 25.0029 111.196 25.003 111.196 25.0032C111.196 25.0034 111.196 25.0035 111.196 25.0037C111.196 25.0039 111.196 25.004 111.196 25.0042C111.196 25.0043 111.196 25.0045 111.196 25.0047C111.196 25.0048 111.196 25.005 111.196 25.0052C111.196 25.0053 111.196 25.0055 111.196 25.0056C111.196 25.0058 111.196 25.006 111.196 25.0061C111.196 25.0063 111.196 25.0065 111.196 25.0066C111.196 25.0068 111.196 25.007 111.196 25.0071C111.196 25.0073 111.196 25.0074 111.196 25.0076C111.196 25.0078 111.196 25.0079 111.196 25.0081C111.196 25.0083 111.196 25.0084 111.196 25.0086C111.196 25.0088 111.196 25.0089 111.196 25.0091C111.196 25.0092 111.196 25.0094 111.196 25.0096C111.196 25.0097 111.196 25.0099 111.196 25.0101C111.196 25.0102 111.196 25.0104 111.196 25.0105C111.196 25.0107 111.196 25.0109 111.196 25.011C111.196 25.0112 111.196 25.0114 111.196 25.0115C111.196 25.0117 111.196 25.0119 111.196 25.012C111.196 25.0122 111.196 25.0124 111.196 25.0125C111.196 25.0127 111.196 25.0128 111.196 25.013C111.196 25.0132 111.196 25.0133 111.196 25.0135C111.196 25.0137 111.196 25.0138 111.196 25.014C111.196 25.0142 111.196 25.0143 111.196 25.0145C111.196 25.0146 111.196 25.0148 111.196 25.015C111.196 25.0151 111.196 25.0153 111.196 25.0155C111.196 25.0156 111.196 25.0158 111.196 25.016C111.196 25.0161 111.196 25.0163 111.196 25.0165C111.196 25.0166 111.196 25.0168 111.196 25.0169C111.196 25.0171 111.196 25.0173 111.196 25.0174C111.196 25.0176 111.196 25.0178 111.196 25.0179C111.196 25.0181 111.196 25.0183 111.196 25.0184C111.196 25.0186 111.196 25.0188 111.196 25.0189C111.196 25.0191 111.196 25.0193 111.196 25.0194C111.196 25.0196 111.196 25.0197 111.196 25.0199C111.196 25.0201 111.196 25.0202 111.196 25.0204C111.196 25.0206 111.196 25.0207 111.196 25.0209C111.196 25.0211 111.196 25.0212 111.196 25.0214C111.196 25.0216 111.196 25.0217 111.196 25.0219C111.196 25.0221 111.196 25.0222 111.196 25.0224C111.196 25.0226 111.196 25.0227 111.196 25.0229C111.196 25.0231 111.196 25.0232 111.196 25.0234C111.196 25.0235 111.196 25.0237 111.196 25.0239C111.196 25.024 111.196 25.0242 111.196 25.0244C111.196 25.0245 111.196 25.0247 111.196 25.0249C111.196 25.025 111.196 25.0252 111.196 25.0254C111.196 25.0255 111.196 25.0257 111.196 25.0259C111.196 25.026 111.196 25.0262 111.196 25.0264C111.196 25.0265 111.196 25.0267 111.196 25.0269C111.196 25.027 111.196 25.0272 111.196 25.0274C111.196 25.0275 111.196 25.0277 111.196 25.0279C111.196 25.028 111.196 25.0282 111.196 25.0283C111.196 25.0285 111.196 25.0287 111.196 25.0288C111.196 25.029 111.196 25.0292 111.196 25.0293C111.196 25.0295 111.196 25.0297 111.196 25.0298C111.196 25.03 111.196 25.0302 111.196 25.0303C111.196 25.0305 111.196 25.0307 111.196 25.0308C111.196 25.031 111.196 25.0312 111.196 25.0313C111.196 25.0315 111.196 25.0317 111.196 25.0318C111.196 25.032 111.196 25.0322 111.196 25.0323C111.196 25.0325 111.196 25.0327 111.196 25.0328C111.196 25.033 111.196 25.0332 111.196 25.0333C111.196 25.0335 111.196 25.0337 111.196 25.0338C111.196 25.034 111.196 25.0342 111.196 25.0343C111.196 25.0345 111.196 25.0347 111.196 25.0348C111.196 25.035 111.196 25.0352 111.196 25.0353C111.196 25.0355 111.196 25.0357 111.196 25.0358C111.196 25.036 111.196 25.0362 111.196 25.0363C111.196 25.0365 111.196 25.0367 111.196 25.0368C111.196 25.037 111.196 25.0372 111.196 25.0373C111.196 25.0375 111.196 25.0377 111.196 25.0378C111.196 25.038 111.196 25.0382 111.196 25.0383C111.196 25.0385 111.196 25.0387 111.196 25.0388C111.196 25.039 111.196 25.0392 111.196 25.0393C111.196 25.0395 111.196 25.0397 111.196 25.0398C111.196 25.04 111.196 25.0402 111.196 25.0403C111.196 25.0405 111.196 25.0407 111.196 25.0408C111.196 25.041 111.196 25.0412 111.196 25.0413C111.196 25.0415 111.196 25.0417 111.196 25.0419C111.196 25.042 111.196 25.0422 111.196 25.0424C111.196 25.0425 111.196 25.0427 111.196 25.0429C111.196 25.043 111.196 25.0432 111.196 25.0434C111.196 25.0435 111.196 25.0437 111.196 25.0439C111.196 25.044 111.196 25.0442 111.196 25.0444C111.196 25.0445 111.196 25.0447 111.196 25.0449C111.196 25.045 111.196 25.0452 111.196 25.0454C111.196 25.0455 111.196 25.0457 111.196 25.0459C111.196 25.046 111.196 25.0462 111.196 25.0464C111.196 25.0466 111.196 25.0467 111.196 25.0469C111.196 25.0471 111.196 25.0472 111.196 25.0474C111.196 25.0476 111.196 25.0477 111.196 25.0479C111.196 25.0481 111.196 25.0482 111.196 25.0484C111.196 25.0486 111.196 25.0487 111.196 25.0489C111.196 25.0491 111.196 25.0492 111.196 25.0494C111.196 25.0496 111.196 25.0497 111.196 25.0499C111.196 25.0501 111.196 25.0503 111.196 25.0504C111.196 25.0506 111.196 25.0508 111.196 25.0509C111.196 25.0511 111.196 25.0513 111.196 25.0514C111.196 25.0516 111.196 25.0518 111.196 25.0519C111.196 25.0521 111.196 25.0523 111.196 25.0524C111.196 25.0526 111.196 25.0528 111.196 25.053C111.196 25.0531 111.196 25.0533 111.196 25.0535C111.196 25.0536 111.196 25.0538 111.196 25.054C111.196 25.0541 111.196 25.0543 111.196 25.0545C111.196 25.0546 111.196 25.0548 111.196 25.055C111.196 25.0552 111.196 25.0553 111.196 25.0555C111.196 25.0557 111.196 25.0558 111.196 25.056C111.196 25.0562 111.196 25.0563 111.196 25.0565C111.196 25.0567 111.196 25.0568 111.196 25.057C111.196 25.0572 111.196 25.0574 111.196 25.0575C111.196 25.0577 111.196 25.0579 111.196 25.058C111.196 25.0582 111.196 25.0584 111.196 25.0585C111.196 25.0587 111.196 25.0589 111.196 25.059C111.196 25.0592 111.196 25.0594 111.196 25.0596C111.196 25.0597 111.196 25.0599 111.196 25.0601C111.196 25.0602 111.196 25.0604 111.196 25.0606C111.196 25.0607 111.196 25.0609 111.196 25.0611C111.196 25.0613 111.196 25.0614 111.196 25.0616C111.196 25.0618 111.196 25.0619 111.196 25.0621C111.196 25.0623 111.196 25.0624 111.196 25.0626C111.196 25.0628 111.196 25.063 111.196 25.0631C111.196 25.0633 111.196 25.0635 111.196 25.0636C111.196 25.0638 111.196 25.064 111.196 25.0641C111.196 25.0643 111.196 25.0645 111.196 25.0647C111.196 25.0648 111.196 25.065 111.196 25.0652C111.196 25.0653 111.196 25.0655 111.196 25.0657C111.196 25.0658 111.196 25.066 111.196 25.0662C111.196 25.0664 111.196 25.0665 111.196 25.0667C111.196 25.0669 111.196 25.067 111.196 25.0672C111.196 25.0674 111.196 25.0676 111.196 25.0677C111.196 25.0679 111.196 25.0681 111.196 25.0682C111.196 25.0684 111.196 25.0686 111.196 25.0687C111.196 25.0689 111.196 25.0691 111.196 25.0693C111.196 25.0694 111.196 25.0696 111.196 25.0698C111.196 25.0699 111.196 25.0701 111.196 25.0703C111.196 25.0705 111.196 25.0706 111.196 25.0708C111.196 25.071 111.196 25.0711 111.196 25.0713C111.196 25.0715 111.196 25.0717 111.196 25.0718C111.196 25.072 111.196 25.0722 111.196 25.0723C111.196 25.0725 111.196 25.0727 111.196 25.0729C111.196 25.073 111.196 25.0732 111.196 25.0734C111.196 25.0735 111.196 25.0737 111.196 25.0739C111.196 25.0741 111.196 25.0742 111.196 25.0744C111.196 25.0746 111.196 25.0747 111.196 25.0749C111.196 25.0751 111.196 25.0753 111.196 25.0754C111.196 25.0756 111.196 25.0758 111.196 25.0759C111.196 25.0761 111.196 25.0763 111.196 25.0765C111.196 25.0766 111.196 25.0768 111.196 25.077C111.196 25.0771 111.196 25.0773 111.196 25.0775C111.196 25.0777 111.196 25.0778 111.196 25.078C111.196 25.0782 111.196 25.0783 111.196 25.0785C111.196 25.0787 111.196 25.0789 111.196 25.079C111.196 25.0792 111.196 25.0794 111.196 25.0795C111.196 25.0797 111.196 25.0799 111.196 25.0801C111.196 25.0802 111.196 25.0804 111.196 25.0806C111.196 25.0808 111.196 25.0809 111.196 25.0811C111.196 25.0813 111.196 25.0814 111.196 25.0816C111.196 25.0818 111.196 25.082 111.196 25.0821C111.196 25.0823 111.196 25.0825 111.196 25.0826C111.196 25.0828 111.196 25.083 111.196 25.0832C111.196 25.0833 111.196 25.0835 111.196 25.0837C111.196 25.0839 111.196 25.084 111.196 25.0842C111.196 25.0844 111.196 25.0845 111.196 25.0847C111.196 25.0849 111.196 25.0851 111.196 25.0852C111.196 25.0854 111.196 25.0856 111.196 25.0858C111.196 25.0859 111.196 25.0861 111.196 25.0863C111.196 25.0864 111.196 25.0866 111.196 25.0868C111.196 25.087 111.196 25.0871 111.196 25.0873C111.196 25.0875 111.196 25.0877 111.196 25.0878C111.196 25.088 111.196 25.0882 111.196 25.0883C111.196 25.0885 111.196 25.0887 111.196 25.0889C111.196 25.089 111.196 25.0892 111.196 25.0894C111.196 25.0896 111.196 25.0897 111.196 25.0899C111.196 25.0901 111.196 25.0903 111.196 25.0904C111.196 25.0906 111.196 25.0908 111.196 25.0909C111.196 25.0911 111.196 25.0913 111.196 25.0915C111.196 25.0916 111.196 25.0918 111.196 25.092C111.196 25.0922 111.196 25.0923 111.196 25.0925C111.196 25.0927 111.196 25.0929 111.196 25.093C111.196 25.0932 111.196 25.0934 111.196 25.0936C111.196 25.0937 111.196 25.0939 111.196 25.0941C111.196 25.0942 111.196 25.0944 111.196 25.0946C111.196 25.0948 111.196 25.0949 111.196 25.0951C111.196 25.0953 111.196 25.0955 111.196 25.0956C111.196 25.0958 111.196 25.096 111.196 25.0962C111.196 25.0963 111.196 25.0965 111.196 25.0967C111.196 25.0969 111.196 25.097 111.196 25.0972C111.196 25.0974 111.196 25.0976 111.196 25.0977C111.196 25.0979 111.196 25.0981 111.196 25.0982C111.196 25.0984 111.196 25.0986 111.196 25.0988C111.196 25.0989 111.196 25.0991 111.196 25.0993C111.196 25.0995 111.196 25.0996 111.196 25.0998C111.196 25.1 111.196 25.1002 111.196 25.1003C111.196 25.1005 111.196 25.1007 111.196 25.1009C111.196 25.101 111.196 25.1012 111.196 25.1014C111.196 25.1016 111.196 25.1017 111.196 25.1019C111.196 25.1021 111.196 25.1023 111.196 25.1024C111.196 25.1026 111.196 25.1028 111.196 25.103C111.196 25.1031 111.196 25.1033 111.196 25.1035C111.196 25.1037 111.196 25.1038 111.196 25.104C111.196 25.1042 111.196 25.1044 111.196 25.1045C111.196 25.1047 111.196 25.1049 111.196 25.1051C111.196 25.1052 111.196 25.1054 111.196 25.1056C111.196 25.1058 111.196 25.1059 111.196 25.1061C111.196 25.1063 111.196 25.1065 111.196 25.1066C111.196 25.1068 111.196 25.107 111.196 25.1072C111.196 25.1073 111.196 25.1075 111.196 25.1077C111.196 25.1079 111.196 25.108 111.196 25.1082C111.196 25.1084 111.196 25.1086 111.196 25.1087C111.196 25.1089 111.196 25.1091 111.196 25.1093C111.196 25.1094 111.196 25.1096 111.196 25.1098C111.196 25.11 111.196 25.1101 111.196 25.1103C111.196 25.1105 111.196 25.1107 111.196 25.1108C111.196 25.111 111.196 25.1112 111.196 25.1114C111.196 25.1116 111.196 25.1117 111.196 25.1119C111.196 25.1121 111.196 25.1123 111.196 25.1124C111.196 25.1126 111.196 25.1128 111.196 25.113C111.196 25.1131 111.196 25.1133 111.196 25.1135C111.196 25.1137 111.196 25.1138 111.196 25.114C111.196 25.1142 111.196 25.1144 111.196 25.1145C111.196 25.1147 111.196 25.1149 111.196 25.1151C111.196 25.1152 111.196 25.1154 111.196 25.1156C111.196 25.1158 111.196 25.116 111.196 25.1161C111.196 25.1163 111.196 25.1165 111.196 25.1167C111.196 25.1168 111.196 25.117 111.196 25.1172C111.196 25.1174 111.196 25.1175 111.196 25.1177C111.196 25.1179 111.196 25.1181 111.196 25.1182C111.196 25.1184 111.196 25.1186 111.196 25.1188C111.196 25.119 111.196 25.1191 111.196 25.1193C111.196 25.1195 111.196 25.1197 111.196 25.1198C111.196 25.12 111.196 25.1202 111.196 25.1204C111.196 25.1205 111.196 25.1207 111.196 25.1209C111.196 25.1211 111.196 25.1213 111.196 25.1214C111.196 25.1216 111.196 25.1218 111.196 25.122C111.196 25.1221 111.196 25.1223 111.196 25.1225C111.196 25.1227 111.196 25.1228 111.196 25.123C111.196 25.1232 111.196 25.1234 111.196 25.1236C111.196 25.1237 111.196 25.1239 111.196 25.1241C111.196 25.1243 111.196 25.1244 111.196 25.1246C111.196 25.1248 111.196 25.125 111.196 25.1251C111.196 25.1253 111.196 25.1255 111.196 25.1257C111.196 25.1259 111.196 25.126 111.196 25.1262C111.196 25.1264 111.196 25.1266 111.196 25.1267C111.196 25.1269 111.196 25.1271 111.196 25.1273C111.196 25.1275 111.196 25.1276 111.196 25.1278C111.196 25.128 111.196 25.1282 111.196 25.1283C111.196 25.1285 111.196 25.1287 111.196 25.1289C111.196 25.1291 111.196 25.1292 111.196 25.1294C111.196 25.1296 111.196 25.1298 111.196 25.1299C111.196 25.1301 111.196 25.1303 111.196 25.1305C111.196 25.1307 111.196 25.1308 111.196 25.131C111.196 25.1312 111.196 25.1314 111.196 25.1315C111.196 25.1317 111.196 25.1319 111.196 25.1321C111.196 25.1323 111.196 25.1324 111.196 25.1326C111.196 25.1328 111.196 25.133 111.196 25.1332C111.196 25.1333 111.196 25.1335 111.196 25.1337C111.196 25.1339 111.196 25.134 111.196 25.1342C111.196 25.1344 111.196 25.1346 111.196 25.1348C111.196 25.1349 111.196 25.1351 111.196 25.1353C111.196 25.1355 111.196 25.1356 111.196 25.1358C111.196 25.136 111.196 25.1362 111.196 25.1364C111.196 25.1365 111.196 25.1367 111.196 25.1369C111.196 25.1371 111.196 25.1373 111.196 25.1374C111.196 25.1376 111.196 25.1378 111.196 25.138C111.196 25.1381 111.196 25.1383 111.196 25.1385C111.196 25.1387 111.196 25.1389 111.196 25.139C111.196 25.1392 111.196 25.1394 111.196 25.1396C111.196 25.1398 111.196 25.1399 111.196 25.1401C111.196 25.1403 111.196 25.1405 111.196 25.1407C111.196 25.1408 111.196 25.141 111.196 25.1412C111.196 25.1414 111.196 25.1416 111.196 25.1417C111.196 25.1419 111.196 25.1421 111.196 25.1423C111.196 25.1424 111.196 25.1426 111.196 25.1428C111.196 25.143 111.196 25.1432 111.196 25.1433C111.196 25.1435 111.196 25.1437 111.196 25.1439C111.196 25.1441 111.196 25.1442 111.196 25.1444C111.196 25.1446 111.196 25.1448 111.196 25.145C111.196 25.1451 111.196 25.1453 111.196 25.1455C111.196 25.1457 111.196 25.1459 111.196 25.146C111.196 25.1462 111.196 25.1464 111.196 25.1466C111.196 25.1468 111.196 25.1469 111.196 25.1471C111.196 25.1473 111.196 25.1475 111.196 25.1477C111.196 25.1478 111.196 25.148 111.196 25.1482C111.196 25.1484 111.196 25.1486 111.196 25.1487C111.196 25.1489 111.196 25.1491 111.196 25.1493C111.196 25.1495 111.196 25.1496 111.196 25.1498C111.196 25.15 111.196 25.1502 111.196 25.1504C111.196 25.1505 111.196 25.1507 111.196 25.1509C111.196 25.1511 111.196 25.1513 111.196 25.1514C111.196 25.1516 111.196 25.1518 111.196 25.152C111.196 25.1522 111.196 25.1523 111.196 25.1525C111.196 25.1527 111.196 25.1529 111.196 25.1531C111.196 25.1532 111.196 25.1534 111.196 25.1536C111.196 25.1538 111.196 25.154 111.196 25.1541C111.196 25.1543 111.196 25.1545 111.196 25.1547C111.196 25.1549 111.196 25.1551 111.196 25.1552C111.196 25.1554 111.196 25.1556 111.196 25.1558C111.196 25.156 111.196 25.1561 111.196 25.1563C111.196 25.1565 111.196 25.1567 111.196 25.1569C111.196 25.157 111.196 25.1572 111.196 25.1574C111.196 25.1576 111.196 25.1578 111.196 25.1579C111.196 25.1581 111.196 25.1583 111.196 25.1585C111.196 25.1587 111.196 25.1589 111.196 25.159C111.196 25.1592 111.196 25.1594 111.196 25.1596C111.196 25.1598 111.196 25.1599 111.196 25.1601C111.196 25.1603 111.196 25.1605 111.196 25.1607C111.196 25.1608 111.196 25.161 111.196 25.1612C111.196 25.1614 111.196 25.1616 111.196 25.1618C111.196 25.1619 111.196 25.1621 111.196 25.1623C111.196 25.1625 111.196 25.1627 111.196 25.1628C111.196 25.163 111.196 25.1632 111.196 25.1634C111.196 25.1636 111.196 25.1638 111.196 25.1639C111.196 25.1641 111.196 25.1643 111.196 25.1645C111.196 25.1647 111.196 25.1648 111.196 25.165C111.196 25.1652 111.196 25.1654 111.196 25.1656C111.196 25.1658 111.196 25.1659 111.196 25.1661C111.196 25.1663 111.196 25.1665 111.196 25.1667C111.196 25.1668 111.196 25.167 111.196 25.1672C111.196 25.1674 111.196 25.1676 111.196 25.1678C111.196 25.1679 111.196 25.1681 111.196 25.1683C111.196 25.1685 111.196 25.1687 111.196 25.1688C111.196 25.169 111.196 25.1692 111.196 25.1694C111.196 25.1696 111.196 25.1698 111.196 25.1699C111.196 25.1701 111.196 25.1703 111.196 25.1705C111.196 25.1707 111.196 25.1709 111.196 25.171C111.196 25.1712 111.196 25.1714 111.196 25.1716C111.196 25.1718 111.196 25.172 111.196 25.1721C111.196 25.1723 111.196 25.1725 111.196 25.1727C111.196 25.1729 111.196 25.173 111.196 25.1732C111.196 25.1734 111.196 25.1736 111.196 25.1738C111.196 25.174 111.196 25.1741 111.196 25.1743C111.196 25.1745 111.196 25.1747 111.196 25.1749C111.196 25.1751 111.196 25.1752 111.196 25.1754C111.196 25.1756 111.196 25.1758 111.196 25.176C111.196 25.1762 111.196 25.1763 111.196 25.1765C111.196 25.1767 111.196 25.1769 111.196 25.1771C111.196 25.1773 111.196 25.1774 111.196 25.1776C111.196 25.1778 111.196 25.178 111.196 25.1782C111.196 25.1784 111.196 25.1785 111.196 25.1787C111.196 25.1789 111.196 25.1791 111.196 25.1793C111.196 25.1795 111.196 25.1796 111.196 25.1798C111.196 25.18 111.196 25.1802 111.196 25.1804C111.196 25.1806 111.196 25.1807 111.196 25.1809C111.196 25.1811 111.196 25.1813 111.196 25.1815C111.196 25.1817 111.196 25.1818 111.196 25.182C111.196 25.1822 111.196 25.1824 111.196 25.1826C111.196 25.1828 111.196 25.1829 111.196 25.1831C111.196 25.1833 111.196 25.1835 111.196 25.1837C111.196 25.1839 111.196 25.1841 111.196 25.1842C111.196 25.1844 111.196 25.1846 111.196 25.1848C111.196 25.185 111.196 25.1852 111.196 25.1853C111.196 25.1855 111.196 25.1857 111.196 25.1859C111.196 25.1861 111.196 25.1863 111.196 25.1864C111.196 25.1866 111.196 25.1868 111.196 25.187C111.196 25.1872 111.196 25.1874 111.196 25.1875C111.196 25.1877 111.196 25.1879 111.196 25.1881C111.196 25.1883 111.196 25.1885 111.196 25.1887C111.196 25.1888 111.196 25.189 111.196 25.1892C111.196 25.1894 111.196 25.1896 111.196 25.1898C111.196 25.1899 111.196 25.1901 111.196 25.1903C111.196 25.1905 111.196 25.1907 111.196 25.1909C111.196 25.1911 111.196 25.1912 111.196 25.1914C111.196 25.1916 111.196 25.1918 111.196 25.192C111.196 25.1922 111.196 25.1924 111.196 25.1925C111.196 25.1927 111.196 25.1929 111.196 25.1931C111.196 25.1933 111.196 25.1935 111.196 25.1936C111.196 25.1938 111.196 25.194 111.196 25.1942C111.196 25.1944 111.196 25.1946 111.196 25.1948C111.196 25.1949 111.196 25.1951 111.196 25.1953C111.196 25.1955 111.196 25.1957 111.196 25.1959C111.196 25.1961 111.196 25.1962 111.196 25.1964C111.196 25.1966 111.196 25.1968 111.196 25.197C111.196 25.1972 111.196 25.1974 111.196 25.1975C111.196 25.1977 111.196 25.1979 111.196 25.1981C111.196 25.1983 111.196 25.1985 111.196 25.1987C111.196 25.1988 111.196 25.199 111.196 25.1992C111.196 25.1994 111.196 25.1996 111.196 25.1998C111.196 25.1999 111.196 25.2001 111.196 25.2003C111.196 25.2005 111.196 25.2007 111.196 25.2009C111.196 25.2011 111.196 25.2013 111.196 25.2014C111.196 25.2016 111.196 25.2018 111.196 25.202C111.196 25.2022 111.196 25.2024 111.196 25.2026C111.196 25.2027 111.196 25.2029 111.196 25.2031C111.196 25.2033 111.196 25.2035 111.196 25.2037C111.196 25.2039 111.196 25.204 111.196 25.2042C111.196 25.2044 111.196 25.2046 111.196 25.2048C111.196 25.205 111.196 25.2052 111.196 25.2053C111.196 25.2055 111.196 25.2057 111.196 25.2059C111.196 25.2061 111.196 25.2063 111.196 25.2065C111.196 25.2066 111.196 25.2068 111.196 25.207C111.196 25.2072 111.196 25.2074 111.196 25.2076C111.196 25.2078 111.196 25.208 111.196 25.2081C111.196 25.2083 111.196 25.2085 111.196 25.2087C111.196 25.2089 111.196 25.2091 111.196 25.2093C111.196 25.2094 111.196 25.2096 111.196 25.2098C111.196 25.21 111.196 25.2102 111.196 25.2104C111.196 25.2106 111.196 25.2108 111.196 25.2109C111.196 25.2111 111.196 25.2113 111.196 25.2115C111.196 25.2117 111.196 25.2119 111.196 25.2121C111.196 25.2123 111.196 25.2124 111.196 25.2126C111.196 25.2128 111.196 25.213 111.196 25.2132C111.196 25.2134 111.196 25.2136 111.196 25.2138C111.196 25.2139 111.196 25.2141 111.196 25.2143C111.196 25.2145 111.196 25.2147 111.196 25.2149C111.196 25.2151 111.196 25.2153 111.196 25.2154C111.196 25.2156 111.196 25.2158 111.196 25.216H112.196H113.196C113.196 25.2158 113.196 25.2156 113.196 25.2154C113.196 25.2153 113.196 25.2151 113.196 25.2149C113.196 25.2147 113.196 25.2145 113.196 25.2143C113.196 25.2141 113.196 25.2139 113.196 25.2138C113.196 25.2136 113.196 25.2134 113.196 25.2132C113.196 25.213 113.196 25.2128 113.196 25.2126C113.196 25.2124 113.196 25.2123 113.196 25.2121C113.196 25.2119 113.196 25.2117 113.196 25.2115C113.196 25.2113 113.196 25.2111 113.196 25.2109C113.196 25.2108 113.196 25.2106 113.196 25.2104C113.196 25.2102 113.196 25.21 113.196 25.2098C113.196 25.2096 113.196 25.2094 113.196 25.2093C113.196 25.2091 113.196 25.2089 113.196 25.2087C113.196 25.2085 113.196 25.2083 113.196 25.2081C113.196 25.208 113.196 25.2078 113.196 25.2076C113.196 25.2074 113.196 25.2072 113.196 25.207C113.196 25.2068 113.196 25.2066 113.196 25.2065C113.196 25.2063 113.196 25.2061 113.196 25.2059C113.196 25.2057 113.196 25.2055 113.196 25.2053C113.196 25.2052 113.196 25.205 113.196 25.2048C113.196 25.2046 113.196 25.2044 113.196 25.2042C113.196 25.204 113.196 25.2039 113.196 25.2037C113.196 25.2035 113.196 25.2033 113.196 25.2031C113.196 25.2029 113.196 25.2027 113.196 25.2026C113.196 25.2024 113.196 25.2022 113.196 25.202C113.196 25.2018 113.196 25.2016 113.196 25.2014C113.196 25.2013 113.196 25.2011 113.196 25.2009C113.196 25.2007 113.196 25.2005 113.196 25.2003C113.196 25.2001 113.196 25.1999 113.196 25.1998C113.196 25.1996 113.196 25.1994 113.196 25.1992C113.196 25.199 113.196 25.1988 113.196 25.1987C113.196 25.1985 113.196 25.1983 113.196 25.1981C113.196 25.1979 113.196 25.1977 113.196 25.1975C113.196 25.1974 113.196 25.1972 113.196 25.197C113.196 25.1968 113.196 25.1966 113.196 25.1964C113.196 25.1962 113.196 25.1961 113.196 25.1959C113.196 25.1957 113.196 25.1955 113.196 25.1953C113.196 25.1951 113.196 25.1949 113.196 25.1948C113.196 25.1946 113.196 25.1944 113.196 25.1942C113.196 25.194 113.196 25.1938 113.196 25.1936C113.196 25.1935 113.196 25.1933 113.196 25.1931C113.196 25.1929 113.196 25.1927 113.196 25.1925C113.196 25.1924 113.196 25.1922 113.196 25.192C113.196 25.1918 113.196 25.1916 113.196 25.1914C113.196 25.1912 113.196 25.1911 113.196 25.1909C113.196 25.1907 113.196 25.1905 113.196 25.1903C113.196 25.1901 113.196 25.1899 113.196 25.1898C113.196 25.1896 113.196 25.1894 113.196 25.1892C113.196 25.189 113.196 25.1888 113.196 25.1887C113.196 25.1885 113.196 25.1883 113.196 25.1881C113.196 25.1879 113.196 25.1877 113.196 25.1875C113.196 25.1874 113.196 25.1872 113.196 25.187C113.196 25.1868 113.196 25.1866 113.196 25.1864C113.196 25.1863 113.196 25.1861 113.196 25.1859C113.196 25.1857 113.196 25.1855 113.196 25.1853C113.196 25.1852 113.196 25.185 113.196 25.1848C113.196 25.1846 113.196 25.1844 113.196 25.1842C113.196 25.1841 113.196 25.1839 113.196 25.1837C113.196 25.1835 113.196 25.1833 113.196 25.1831C113.196 25.1829 113.196 25.1828 113.196 25.1826C113.196 25.1824 113.196 25.1822 113.196 25.182C113.196 25.1818 113.196 25.1817 113.196 25.1815C113.196 25.1813 113.196 25.1811 113.196 25.1809C113.196 25.1807 113.196 25.1806 113.196 25.1804C113.196 25.1802 113.196 25.18 113.196 25.1798C113.196 25.1796 113.196 25.1795 113.196 25.1793C113.196 25.1791 113.196 25.1789 113.196 25.1787C113.196 25.1785 113.196 25.1784 113.196 25.1782C113.196 25.178 113.196 25.1778 113.196 25.1776C113.196 25.1774 113.196 25.1773 113.196 25.1771C113.196 25.1769 113.196 25.1767 113.196 25.1765C113.196 25.1763 113.196 25.1762 113.196 25.176C113.196 25.1758 113.196 25.1756 113.196 25.1754C113.196 25.1752 113.196 25.1751 113.196 25.1749C113.196 25.1747 113.196 25.1745 113.196 25.1743C113.196 25.1741 113.196 25.174 113.196 25.1738C113.196 25.1736 113.196 25.1734 113.196 25.1732C113.196 25.173 113.196 25.1729 113.196 25.1727C113.196 25.1725 113.196 25.1723 113.196 25.1721C113.196 25.172 113.196 25.1718 113.196 25.1716C113.196 25.1714 113.196 25.1712 113.196 25.171C113.196 25.1709 113.196 25.1707 113.196 25.1705C113.196 25.1703 113.196 25.1701 113.196 25.1699C113.196 25.1698 113.196 25.1696 113.196 25.1694C113.196 25.1692 113.196 25.169 113.196 25.1688C113.196 25.1687 113.196 25.1685 113.196 25.1683C113.196 25.1681 113.196 25.1679 113.196 25.1678C113.196 25.1676 113.196 25.1674 113.196 25.1672C113.196 25.167 113.196 25.1668 113.196 25.1667C113.196 25.1665 113.196 25.1663 113.196 25.1661C113.196 25.1659 113.196 25.1658 113.196 25.1656C113.196 25.1654 113.196 25.1652 113.196 25.165C113.196 25.1648 113.196 25.1647 113.196 25.1645C113.196 25.1643 113.196 25.1641 113.196 25.1639C113.196 25.1638 113.196 25.1636 113.196 25.1634C113.196 25.1632 113.196 25.163 113.196 25.1628C113.196 25.1627 113.196 25.1625 113.196 25.1623C113.196 25.1621 113.196 25.1619 113.196 25.1618C113.196 25.1616 113.196 25.1614 113.196 25.1612C113.196 25.161 113.196 25.1608 113.196 25.1607C113.196 25.1605 113.196 25.1603 113.196 25.1601C113.196 25.1599 113.196 25.1598 113.196 25.1596C113.196 25.1594 113.196 25.1592 113.196 25.159C113.196 25.1589 113.196 25.1587 113.196 25.1585C113.196 25.1583 113.196 25.1581 113.196 25.1579C113.196 25.1578 113.196 25.1576 113.196 25.1574C113.196 25.1572 113.196 25.157 113.196 25.1569C113.196 25.1567 113.196 25.1565 113.196 25.1563C113.196 25.1561 113.196 25.156 113.196 25.1558C113.196 25.1556 113.196 25.1554 113.196 25.1552C113.196 25.1551 113.196 25.1549 113.196 25.1547C113.196 25.1545 113.196 25.1543 113.196 25.1541C113.196 25.154 113.196 25.1538 113.196 25.1536C113.196 25.1534 113.196 25.1532 113.196 25.1531C113.196 25.1529 113.196 25.1527 113.196 25.1525C113.196 25.1523 113.196 25.1522 113.196 25.152C113.196 25.1518 113.196 25.1516 113.196 25.1514C113.196 25.1513 113.196 25.1511 113.196 25.1509C113.196 25.1507 113.196 25.1505 113.196 25.1504C113.196 25.1502 113.196 25.15 113.196 25.1498C113.196 25.1496 113.196 25.1495 113.196 25.1493C113.196 25.1491 113.196 25.1489 113.196 25.1487C113.196 25.1486 113.196 25.1484 113.196 25.1482C113.196 25.148 113.196 25.1478 113.196 25.1477C113.196 25.1475 113.196 25.1473 113.196 25.1471C113.196 25.1469 113.196 25.1468 113.196 25.1466C113.196 25.1464 113.196 25.1462 113.196 25.146C113.196 25.1459 113.196 25.1457 113.196 25.1455C113.196 25.1453 113.196 25.1451 113.196 25.145C113.196 25.1448 113.196 25.1446 113.196 25.1444C113.196 25.1442 113.196 25.1441 113.196 25.1439C113.196 25.1437 113.196 25.1435 113.196 25.1433C113.196 25.1432 113.196 25.143 113.196 25.1428C113.196 25.1426 113.196 25.1424 113.196 25.1423C113.196 25.1421 113.196 25.1419 113.196 25.1417C113.196 25.1416 113.196 25.1414 113.196 25.1412C113.196 25.141 113.196 25.1408 113.196 25.1407C113.196 25.1405 113.196 25.1403 113.196 25.1401C113.196 25.1399 113.196 25.1398 113.196 25.1396C113.196 25.1394 113.196 25.1392 113.196 25.139C113.196 25.1389 113.196 25.1387 113.196 25.1385C113.196 25.1383 113.196 25.1381 113.196 25.138C113.196 25.1378 113.196 25.1376 113.196 25.1374C113.196 25.1373 113.196 25.1371 113.196 25.1369C113.196 25.1367 113.196 25.1365 113.196 25.1364C113.196 25.1362 113.196 25.136 113.196 25.1358C113.196 25.1356 113.196 25.1355 113.196 25.1353C113.196 25.1351 113.196 25.1349 113.196 25.1348C113.196 25.1346 113.196 25.1344 113.196 25.1342C113.196 25.134 113.196 25.1339 113.196 25.1337C113.196 25.1335 113.196 25.1333 113.196 25.1332C113.196 25.133 113.196 25.1328 113.196 25.1326C113.196 25.1324 113.196 25.1323 113.196 25.1321C113.196 25.1319 113.196 25.1317 113.196 25.1315C113.196 25.1314 113.196 25.1312 113.196 25.131C113.196 25.1308 113.196 25.1307 113.196 25.1305C113.196 25.1303 113.196 25.1301 113.196 25.1299C113.196 25.1298 113.196 25.1296 113.196 25.1294C113.196 25.1292 113.196 25.1291 113.196 25.1289C113.196 25.1287 113.196 25.1285 113.196 25.1283C113.196 25.1282 113.196 25.128 113.196 25.1278C113.196 25.1276 113.196 25.1275 113.196 25.1273C113.196 25.1271 113.196 25.1269 113.196 25.1267C113.196 25.1266 113.196 25.1264 113.196 25.1262C113.196 25.126 113.196 25.1259 113.196 25.1257C113.196 25.1255 113.196 25.1253 113.196 25.1251C113.196 25.125 113.196 25.1248 113.196 25.1246C113.196 25.1244 113.196 25.1243 113.196 25.1241C113.196 25.1239 113.196 25.1237 113.196 25.1236C113.196 25.1234 113.196 25.1232 113.196 25.123C113.196 25.1228 113.196 25.1227 113.196 25.1225C113.196 25.1223 113.196 25.1221 113.196 25.122C113.196 25.1218 113.196 25.1216 113.196 25.1214C113.196 25.1213 113.196 25.1211 113.196 25.1209C113.196 25.1207 113.196 25.1205 113.196 25.1204C113.196 25.1202 113.196 25.12 113.196 25.1198C113.196 25.1197 113.196 25.1195 113.196 25.1193C113.196 25.1191 113.196 25.119 113.196 25.1188C113.196 25.1186 113.196 25.1184 113.196 25.1182C113.196 25.1181 113.196 25.1179 113.196 25.1177C113.196 25.1175 113.196 25.1174 113.196 25.1172C113.196 25.117 113.196 25.1168 113.196 25.1167C113.196 25.1165 113.196 25.1163 113.196 25.1161C113.196 25.116 113.196 25.1158 113.196 25.1156C113.196 25.1154 113.196 25.1152 113.196 25.1151C113.196 25.1149 113.196 25.1147 113.196 25.1145C113.196 25.1144 113.196 25.1142 113.196 25.114C113.196 25.1138 113.196 25.1137 113.196 25.1135C113.196 25.1133 113.196 25.1131 113.196 25.113C113.196 25.1128 113.196 25.1126 113.196 25.1124C113.196 25.1123 113.196 25.1121 113.196 25.1119C113.196 25.1117 113.196 25.1116 113.196 25.1114C113.196 25.1112 113.196 25.111 113.196 25.1108C113.196 25.1107 113.196 25.1105 113.196 25.1103C113.196 25.1101 113.196 25.11 113.196 25.1098C113.196 25.1096 113.196 25.1094 113.196 25.1093C113.196 25.1091 113.196 25.1089 113.196 25.1087C113.196 25.1086 113.196 25.1084 113.196 25.1082C113.196 25.108 113.196 25.1079 113.196 25.1077C113.196 25.1075 113.196 25.1073 113.196 25.1072C113.196 25.107 113.196 25.1068 113.196 25.1066C113.196 25.1065 113.196 25.1063 113.196 25.1061C113.196 25.1059 113.196 25.1058 113.196 25.1056C113.196 25.1054 113.196 25.1052 113.196 25.1051C113.196 25.1049 113.196 25.1047 113.196 25.1045C113.196 25.1044 113.196 25.1042 113.196 25.104C113.196 25.1038 113.196 25.1037 113.196 25.1035C113.196 25.1033 113.196 25.1031 113.196 25.103C113.196 25.1028 113.196 25.1026 113.196 25.1024C113.196 25.1023 113.196 25.1021 113.196 25.1019C113.196 25.1017 113.196 25.1016 113.196 25.1014C113.196 25.1012 113.196 25.101 113.196 25.1009C113.196 25.1007 113.196 25.1005 113.196 25.1003C113.196 25.1002 113.196 25.1 113.196 25.0998C113.196 25.0996 113.196 25.0995 113.196 25.0993C113.196 25.0991 113.196 25.0989 113.196 25.0988C113.196 25.0986 113.196 25.0984 113.196 25.0982C113.196 25.0981 113.196 25.0979 113.196 25.0977C113.196 25.0976 113.196 25.0974 113.196 25.0972C113.196 25.097 113.196 25.0969 113.196 25.0967C113.196 25.0965 113.196 25.0963 113.196 25.0962C113.196 25.096 113.196 25.0958 113.196 25.0956C113.196 25.0955 113.196 25.0953 113.196 25.0951C113.196 25.0949 113.196 25.0948 113.196 25.0946C113.196 25.0944 113.196 25.0942 113.196 25.0941C113.196 25.0939 113.196 25.0937 113.196 25.0936C113.196 25.0934 113.196 25.0932 113.196 25.093C113.196 25.0929 113.196 25.0927 113.196 25.0925C113.196 25.0923 113.196 25.0922 113.196 25.092C113.196 25.0918 113.196 25.0916 113.196 25.0915C113.196 25.0913 113.196 25.0911 113.196 25.0909C113.196 25.0908 113.196 25.0906 113.196 25.0904C113.196 25.0903 113.196 25.0901 113.196 25.0899C113.196 25.0897 113.196 25.0896 113.196 25.0894C113.196 25.0892 113.196 25.089 113.196 25.0889C113.196 25.0887 113.196 25.0885 113.196 25.0883C113.196 25.0882 113.196 25.088 113.196 25.0878C113.196 25.0877 113.196 25.0875 113.196 25.0873C113.196 25.0871 113.196 25.087 113.196 25.0868C113.196 25.0866 113.196 25.0864 113.196 25.0863C113.196 25.0861 113.196 25.0859 113.196 25.0858C113.196 25.0856 113.196 25.0854 113.196 25.0852C113.196 25.0851 113.196 25.0849 113.196 25.0847C113.196 25.0845 113.196 25.0844 113.196 25.0842C113.196 25.084 113.196 25.0839 113.196 25.0837C113.196 25.0835 113.196 25.0833 113.196 25.0832C113.196 25.083 113.196 25.0828 113.196 25.0826C113.196 25.0825 113.196 25.0823 113.196 25.0821C113.196 25.082 113.196 25.0818 113.196 25.0816C113.196 25.0814 113.196 25.0813 113.196 25.0811C113.196 25.0809 113.196 25.0808 113.196 25.0806C113.196 25.0804 113.196 25.0802 113.196 25.0801C113.196 25.0799 113.196 25.0797 113.196 25.0795C113.196 25.0794 113.196 25.0792 113.196 25.079C113.196 25.0789 113.196 25.0787 113.196 25.0785C113.196 25.0783 113.196 25.0782 113.196 25.078C113.196 25.0778 113.196 25.0777 113.196 25.0775C113.196 25.0773 113.196 25.0771 113.196 25.077C113.196 25.0768 113.196 25.0766 113.196 25.0765C113.196 25.0763 113.196 25.0761 113.196 25.0759C113.196 25.0758 113.196 25.0756 113.196 25.0754C113.196 25.0753 113.196 25.0751 113.196 25.0749C113.196 25.0747 113.196 25.0746 113.196 25.0744C113.196 25.0742 113.196 25.0741 113.196 25.0739C113.196 25.0737 113.196 25.0735 113.196 25.0734C113.196 25.0732 113.196 25.073 113.196 25.0729C113.196 25.0727 113.196 25.0725 113.196 25.0723C113.196 25.0722 113.196 25.072 113.196 25.0718C113.196 25.0717 113.196 25.0715 113.196 25.0713C113.196 25.0711 113.196 25.071 113.196 25.0708C113.196 25.0706 113.196 25.0705 113.196 25.0703C113.196 25.0701 113.196 25.0699 113.196 25.0698C113.196 25.0696 113.196 25.0694 113.196 25.0693C113.196 25.0691 113.196 25.0689 113.196 25.0687C113.196 25.0686 113.196 25.0684 113.196 25.0682C113.196 25.0681 113.196 25.0679 113.196 25.0677C113.196 25.0676 113.196 25.0674 113.196 25.0672C113.196 25.067 113.196 25.0669 113.196 25.0667C113.196 25.0665 113.196 25.0664 113.196 25.0662C113.196 25.066 113.196 25.0658 113.196 25.0657C113.196 25.0655 113.196 25.0653 113.196 25.0652C113.196 25.065 113.196 25.0648 113.196 25.0647C113.196 25.0645 113.196 25.0643 113.196 25.0641C113.196 25.064 113.196 25.0638 113.196 25.0636C113.196 25.0635 113.196 25.0633 113.196 25.0631C113.196 25.063 113.196 25.0628 113.196 25.0626C113.196 25.0624 113.196 25.0623 113.196 25.0621C113.196 25.0619 113.196 25.0618 113.196 25.0616C113.196 25.0614 113.196 25.0613 113.196 25.0611C113.196 25.0609 113.196 25.0607 113.196 25.0606C113.196 25.0604 113.196 25.0602 113.196 25.0601C113.196 25.0599 113.196 25.0597 113.196 25.0596C113.196 25.0594 113.196 25.0592 113.196 25.059C113.196 25.0589 113.196 25.0587 113.196 25.0585C113.196 25.0584 113.196 25.0582 113.196 25.058C113.196 25.0579 113.196 25.0577 113.196 25.0575C113.196 25.0574 113.196 25.0572 113.196 25.057C113.196 25.0568 113.196 25.0567 113.196 25.0565C113.196 25.0563 113.196 25.0562 113.196 25.056C113.196 25.0558 113.196 25.0557 113.196 25.0555C113.196 25.0553 113.196 25.0552 113.196 25.055C113.196 25.0548 113.196 25.0546 113.196 25.0545C113.196 25.0543 113.196 25.0541 113.196 25.054C113.196 25.0538 113.196 25.0536 113.196 25.0535C113.196 25.0533 113.196 25.0531 113.196 25.053C113.196 25.0528 113.196 25.0526 113.196 25.0524C113.196 25.0523 113.196 25.0521 113.196 25.0519C113.196 25.0518 113.196 25.0516 113.196 25.0514C113.196 25.0513 113.196 25.0511 113.196 25.0509C113.196 25.0508 113.196 25.0506 113.196 25.0504C113.196 25.0503 113.196 25.0501 113.196 25.0499C113.196 25.0497 113.196 25.0496 113.196 25.0494C113.196 25.0492 113.196 25.0491 113.196 25.0489C113.196 25.0487 113.196 25.0486 113.196 25.0484C113.196 25.0482 113.196 25.0481 113.196 25.0479C113.196 25.0477 113.196 25.0476 113.196 25.0474C113.196 25.0472 113.196 25.0471 113.196 25.0469C113.196 25.0467 113.196 25.0466 113.196 25.0464C113.196 25.0462 113.196 25.046 113.196 25.0459C113.196 25.0457 113.196 25.0455 113.196 25.0454C113.196 25.0452 113.196 25.045 113.196 25.0449C113.196 25.0447 113.196 25.0445 113.196 25.0444C113.196 25.0442 113.196 25.044 113.196 25.0439C113.196 25.0437 113.196 25.0435 113.196 25.0434C113.196 25.0432 113.196 25.043 113.196 25.0429C113.196 25.0427 113.196 25.0425 113.196 25.0424C113.196 25.0422 113.196 25.042 113.196 25.0419C113.196 25.0417 113.196 25.0415 113.196 25.0413C113.196 25.0412 113.196 25.041 113.196 25.0408C113.196 25.0407 113.196 25.0405 113.196 25.0403C113.196 25.0402 113.196 25.04 113.196 25.0398C113.196 25.0397 113.196 25.0395 113.196 25.0393C113.196 25.0392 113.196 25.039 113.196 25.0388C113.196 25.0387 113.196 25.0385 113.196 25.0383C113.196 25.0382 113.196 25.038 113.196 25.0378C113.196 25.0377 113.196 25.0375 113.196 25.0373C113.196 25.0372 113.196 25.037 113.196 25.0368C113.196 25.0367 113.196 25.0365 113.196 25.0363C113.196 25.0362 113.196 25.036 113.196 25.0358C113.196 25.0357 113.196 25.0355 113.196 25.0353C113.196 25.0352 113.196 25.035 113.196 25.0348C113.196 25.0347 113.196 25.0345 113.196 25.0343C113.196 25.0342 113.196 25.034 113.196 25.0338C113.196 25.0337 113.196 25.0335 113.196 25.0333C113.196 25.0332 113.196 25.033 113.196 25.0328C113.196 25.0327 113.196 25.0325 113.196 25.0323C113.196 25.0322 113.196 25.032 113.196 25.0318C113.196 25.0317 113.196 25.0315 113.196 25.0313C113.196 25.0312 113.196 25.031 113.196 25.0308C113.196 25.0307 113.196 25.0305 113.196 25.0303C113.196 25.0302 113.196 25.03 113.196 25.0298C113.196 25.0297 113.196 25.0295 113.196 25.0293C113.196 25.0292 113.196 25.029 113.196 25.0288C113.196 25.0287 113.196 25.0285 113.196 25.0283C113.196 25.0282 113.196 25.028 113.196 25.0279C113.196 25.0277 113.196 25.0275 113.196 25.0274C113.196 25.0272 113.196 25.027 113.196 25.0269C113.196 25.0267 113.196 25.0265 113.196 25.0264C113.196 25.0262 113.196 25.026 113.196 25.0259C113.196 25.0257 113.196 25.0255 113.196 25.0254C113.196 25.0252 113.196 25.025 113.196 25.0249C113.196 25.0247 113.196 25.0245 113.196 25.0244C113.196 25.0242 113.196 25.024 113.196 25.0239C113.196 25.0237 113.196 25.0235 113.196 25.0234C113.196 25.0232 113.196 25.0231 113.196 25.0229C113.196 25.0227 113.196 25.0226 113.196 25.0224C113.196 25.0222 113.196 25.0221 113.196 25.0219C113.196 25.0217 113.196 25.0216 113.196 25.0214C113.196 25.0212 113.196 25.0211 113.196 25.0209C113.196 25.0207 113.196 25.0206 113.196 25.0204C113.196 25.0202 113.196 25.0201 113.196 25.0199C113.196 25.0197 113.196 25.0196 113.196 25.0194C113.196 25.0193 113.196 25.0191 113.196 25.0189C113.196 25.0188 113.196 25.0186 113.196 25.0184C113.196 25.0183 113.196 25.0181 113.196 25.0179C113.196 25.0178 113.196 25.0176 113.196 25.0174C113.196 25.0173 113.196 25.0171 113.196 25.0169C113.196 25.0168 113.196 25.0166 113.196 25.0165C113.196 25.0163 113.196 25.0161 113.196 25.016C113.196 25.0158 113.196 25.0156 113.196 25.0155C113.196 25.0153 113.196 25.0151 113.196 25.015C113.196 25.0148 113.196 25.0146 113.196 25.0145C113.196 25.0143 113.196 25.0142 113.196 25.014C113.196 25.0138 113.196 25.0137 113.196 25.0135C113.196 25.0133 113.196 25.0132 113.196 25.013C113.196 25.0128 113.196 25.0127 113.196 25.0125C113.196 25.0124 113.196 25.0122 113.196 25.012C113.196 25.0119 113.196 25.0117 113.196 25.0115C113.196 25.0114 113.196 25.0112 113.196 25.011C113.196 25.0109 113.196 25.0107 113.196 25.0105C113.196 25.0104 113.196 25.0102 113.196 25.0101C113.196 25.0099 113.196 25.0097 113.196 25.0096C113.196 25.0094 113.196 25.0092 113.196 25.0091C113.196 25.0089 113.196 25.0088 113.196 25.0086C113.196 25.0084 113.196 25.0083 113.196 25.0081C113.196 25.0079 113.196 25.0078 113.196 25.0076C113.196 25.0074 113.196 25.0073 113.196 25.0071C113.196 25.007 113.196 25.0068 113.196 25.0066C113.196 25.0065 113.196 25.0063 113.196 25.0061C113.196 25.006 113.196 25.0058 113.196 25.0056C113.196 25.0055 113.196 25.0053 113.196 25.0052C113.196 25.005 113.196 25.0048 113.196 25.0047C113.196 25.0045 113.196 25.0043 113.196 25.0042C113.196 25.004 113.196 25.0039 113.196 25.0037C113.196 25.0035 113.196 25.0034 113.196 25.0032C113.196 25.003 113.196 25.0029 113.196 25.0027C113.196 25.0026 113.196 25.0024 113.196 25.0022C113.196 25.0021 113.196 25.0019 113.196 25.0017C113.196 25.0016 113.196 25.0014 113.196 25.0013C113.196 25.0011 113.196 25.0009 113.196 25.0008C113.196 25.0006 113.196 25.0004 113.196 25.0003C113.196 25.0001 113.196 25 113.196 24.9998C113.196 24.9996 113.196 24.9995 113.196 24.9993C113.196 24.9991 113.196 24.999 113.196 24.9988C113.196 24.9987 113.196 24.9985 113.196 24.9983C113.196 24.9982 113.196 24.998 113.196 24.9978C113.196 24.9977 113.196 24.9975 113.196 24.9974C113.196 24.9972 113.196 24.997 113.196 24.9969C113.196 24.9967 113.196 24.9965 113.196 24.9964C113.196 24.9962 113.196 24.9961 113.196 24.9959C113.196 24.9957 113.196 24.9956 113.196 24.9954C113.196 24.9953 113.196 24.9951 113.196 24.9949C113.196 24.9948 113.196 24.9946 113.196 24.9944C113.196 24.9943 113.196 24.9941 113.196 24.994C113.196 24.9938 113.196 24.9936 113.196 24.9935C113.196 24.9933 113.196 24.9932 113.196 24.993C113.196 24.9928 113.196 24.9927 113.196 24.9925C113.196 24.9923 113.196 24.9922 113.196 24.992C113.196 24.9919 113.196 24.9917 113.196 24.9915C113.196 24.9914 113.196 24.9912 113.196 24.9911C113.196 24.9909 113.196 24.9907 113.196 24.9906C113.196 24.9904 113.196 24.9902 113.196 24.9901C113.196 24.9899 113.196 24.9898 113.196 24.9896C113.196 24.9894 113.196 24.9893 113.196 24.9891C113.196 24.989 113.196 24.9888 113.196 24.9886C113.196 24.9885 113.196 24.9883 113.196 24.9882C113.196 24.988 113.196 24.9878 113.196 24.9877C113.196 24.9875 113.196 24.9873 113.196 24.9872C113.196 24.987 113.196 24.9869 113.196 24.9867C113.196 24.9865 113.196 24.9864 113.196 24.9862C113.196 24.9861 113.196 24.9859 113.196 24.9857C113.196 24.9856 113.196 24.9854 113.196 24.9853C113.196 24.9851 113.196 24.9849 113.196 24.9848C113.196 24.9846 113.196 24.9845 113.196 24.9843C113.196 24.9841 113.196 24.984 113.196 24.9838C113.196 24.9837 113.196 24.9835 113.196 24.9833C113.196 24.9832 113.196 24.983 113.196 24.9829C113.196 24.9827 113.196 24.9825 113.196 24.9824C113.196 24.9822 113.196 24.9821 113.196 24.9819C113.196 24.9817 113.196 24.9816 113.196 24.9814C113.196 24.9813 113.196 24.9811 113.196 24.9809C113.196 24.9808 113.196 24.9806 113.196 24.9805C113.196 24.9803 113.196 24.9801 113.196 24.98C113.196 24.9798 113.196 24.9797 113.196 24.9795C113.196 24.9793 113.196 24.9792 113.196 24.979C113.196 24.9789 113.196 24.9787 113.196 24.9785C113.196 24.9784 113.196 24.9782 113.196 24.9781C113.196 24.9779 113.196 24.9777 113.196 24.9776C113.196 24.9774 113.196 24.9773 113.196 24.9771C113.196 24.9769 113.196 24.9768 113.196 24.9766C113.196 24.9765 113.196 24.9763 113.196 24.9761C113.196 24.976 113.196 24.9758 113.196 24.9757C113.196 24.9755 113.196 24.9753 113.196 24.9752C113.196 24.975 113.196 24.9749 113.196 24.9747C113.196 24.9746 113.196 24.9744 113.196 24.9742C113.196 24.9741 113.196 24.9739 113.196 24.9738C113.196 24.9736 113.196 24.9734 113.196 24.9733C113.196 24.9731 113.196 24.973 113.196 24.9728C113.196 24.9726 113.196 24.9725 113.196 24.9723C113.196 24.9722 113.196 24.972 113.196 24.9718C113.196 24.9717 113.196 24.9715 113.196 24.9714C113.196 24.9712 113.196 24.9711 113.196 24.9709C113.196 24.9707 113.196 24.9706 113.196 24.9704C113.196 24.9703 113.196 24.9701 113.196 24.9699C113.196 24.9698 113.196 24.9696 113.196 24.9695C113.196 24.9693 113.196 24.9692 113.196 24.969C113.196 24.9688 113.196 24.9687 113.196 24.9685C113.196 24.9684 113.196 24.9682 113.196 24.968C113.196 24.9679 113.196 24.9677 113.196 24.9676C113.196 24.9674 113.196 24.9673 113.196 24.9671C113.196 24.9669 113.196 24.9668 113.196 24.9666C113.196 24.9665 113.196 24.9663 113.196 24.9661C113.196 24.966 113.196 24.9658 113.196 24.9657C113.196 24.9655 113.196 24.9654 113.196 24.9652C113.196 24.965 113.196 24.9649 113.196 24.9647C113.196 24.9646 113.196 24.9644 113.196 24.9642C113.196 24.9641 113.196 24.9639 113.196 24.9638C113.196 24.9636 113.196 24.9635 113.196 24.9633C113.196 24.9631 113.196 24.963 113.196 24.9628C113.196 24.9627 113.196 24.9625 113.196 24.9624C113.196 24.9622 113.196 24.962 113.196 24.9619C113.196 24.9617 113.196 24.9616 113.196 24.9614C113.196 24.9613 113.196 24.9611 113.196 24.9609C113.196 24.9608 113.196 24.9606 113.196 24.9605C113.196 24.9603 113.196 24.9602 113.196 24.96C113.196 24.9598 113.196 24.9597 113.196 24.9595C113.196 24.9594 113.196 24.9592 113.196 24.9591C113.196 24.9589 113.196 24.9587 113.196 24.9586C113.196 24.9584 113.196 24.9583 113.196 24.9581C113.196 24.958 113.196 24.9578 113.196 24.9576C113.196 24.9575 113.196 24.9573 113.196 24.9572C113.196 24.957 113.196 24.9569 113.196 24.9567C113.196 24.9565 113.196 24.9564 113.196 24.9562C113.196 24.9561 113.196 24.9559 113.196 24.9558C113.196 24.9556 113.196 24.9554 113.196 24.9553C113.196 24.9551 113.196 24.955 113.196 24.9548C113.196 24.9547 113.196 24.9545 113.196 24.9543C113.196 24.9542 113.196 24.954 113.196 24.9539C113.196 24.9537 113.196 24.9536 113.196 24.9534C113.196 24.9533 113.196 24.9531 113.196 24.9529C113.196 24.9528 113.196 24.9526 113.196 24.9525C113.196 24.9523 113.196 24.9522 113.196 24.952H112.196ZM112.196 25.216V24.216H101.228V25.216V26.216H112.196V25.216ZM101.228 25.216H102.228V23.944H101.228H100.228V25.216H101.228ZM101.228 23.944V24.944H111.284V23.944V22.944H101.228V23.944ZM111.284 23.944L110.684 23.144L110.012 23.648L110.612 24.448L111.212 25.248L111.884 24.744L111.284 23.944ZM110.612 24.448H111.612C111.612 23.3851 111.378 22.4028 110.882 21.53L110.012 22.024L109.143 22.518C109.447 23.0532 109.612 23.6869 109.612 24.448H110.612ZM110.012 22.024L110.894 21.5534C110.429 20.6798 109.775 19.9822 108.94 19.4847L108.428 20.344L107.917 21.2033C108.425 21.5058 108.828 21.9282 109.13 22.4946L110.012 22.024ZM108.428 20.344L108.94 19.4847C108.094 18.9815 107.137 18.744 106.1 18.744V19.744V20.744C106.823 20.744 107.418 20.9065 107.917 21.2033L108.428 20.344ZM106.1 19.744V18.744C105.075 18.744 104.123 18.9832 103.27 19.4795L103.772 20.344L104.275 21.2085C104.797 20.9048 105.397 20.744 106.1 20.744V19.744ZM103.772 20.344L103.27 19.4795C102.417 19.9754 101.751 20.6737 101.282 21.5534L102.164 22.024L103.046 22.4946C103.345 21.9343 103.752 21.5126 104.275 21.2085L103.772 20.344ZM102.164 22.024L101.282 21.5534C100.81 22.4371 100.588 23.4266 100.588 24.496H101.588H102.588C102.588 23.7094 102.75 23.0509 103.046 22.4946L102.164 22.024ZM101.588 24.496H100.588V24.76H101.588H102.588V24.496H101.588ZM101.588 24.76H100.588C100.588 25.8687 100.83 26.8905 101.342 27.7961L102.212 27.304L103.083 26.8119C102.762 26.2455 102.588 25.5713 102.588 24.76H101.588ZM102.212 27.304L101.355 27.8185C101.879 28.6931 102.602 29.3839 103.504 29.883L103.988 29.008L104.472 28.133C103.87 27.8001 103.409 27.3549 103.07 26.7895L102.212 27.304ZM103.988 29.008L103.526 29.8949C104.454 30.3782 105.488 30.608 106.604 30.608V29.608V28.608C105.768 28.608 105.058 28.4378 104.45 28.1211L103.988 29.008ZM106.604 29.608V30.608C107.493 30.608 108.336 30.4501 109.123 30.1237L108.74 29.2L108.357 28.2763C107.832 28.4939 107.251 28.608 106.604 28.608V29.608ZM108.74 29.2L109.115 30.1269C109.938 29.7939 110.645 29.282 111.227 28.6028L110.468 27.952L109.709 27.3012C109.331 27.742 108.886 28.0621 108.365 28.2731L108.74 29.2ZM110.468 27.952L109.714 28.6082L110.674 29.7122L111.428 29.056L112.183 28.3998L111.223 27.2958L110.468 27.952ZM111.428 29.056L110.66 28.4158C110.209 28.9574 109.639 29.3752 108.933 29.6684L109.316 30.592L109.7 31.5156C110.689 31.1048 111.528 30.4986 112.196 29.6962L111.428 29.056ZM109.316 30.592L108.926 29.671C108.231 29.9652 107.446 30.12 106.556 30.12V31.12V32.12C107.682 32.12 108.737 31.9228 109.706 31.513L109.316 30.592ZM115.977 31H114.977V32H115.977V31ZM116.96 14.104L116.237 13.4139V13.4139L116.96 14.104ZM122.312 13.864L123.223 14.2765L123.526 13.608L122.979 13.1188L122.312 13.864ZM121.736 15.136L121.082 15.8917L122.095 16.7696L122.647 15.5485L121.736 15.136ZM120.896 14.68L120.566 15.6239L120.587 15.6313L120.609 15.6378L120.896 14.68ZM118.208 15.112L117.487 14.4195V14.4195L118.208 15.112ZM117.632 18.808H116.632V18.8383L116.634 18.8685L117.632 18.808ZM117.681 19.6H118.681V19.5697L118.679 19.5395L117.681 19.6ZM117.681 31V32H118.681V31H117.681ZM113.721 19.816H112.721V20.816H113.721V19.816ZM113.721 18.4V17.4H112.721V18.4H113.721ZM121.521 18.4H122.521V17.4H121.521V18.4ZM121.521 19.816V20.816H122.521V19.816H121.521ZM123.825 31H122.825V32H123.825V31ZM123.825 18.4V17.4H122.825V18.4H123.825ZM125.528 18.4H126.528V17.4H125.528V18.4ZM125.528 31V32H126.528V31H125.528ZM123.8 15.256L123.093 15.9631V15.9631L123.8 15.256ZM123.8 13.552L124.483 14.2831L124.495 14.2713L124.508 14.2591L123.8 13.552ZM125.576 13.528L126.259 12.7969V12.7969L125.576 13.528ZM125.576 15.256L124.869 14.5489L124.857 14.5611L124.845 14.5737L125.576 15.256ZM115.977 31H116.977V16.816H115.977H114.977V31H115.977ZM115.977 16.816H116.977C116.977 15.904 117.237 15.2635 117.684 14.7941L116.96 14.104L116.237 13.4139C115.372 14.3205 114.977 15.488 114.977 16.816H115.977ZM116.96 14.104L117.684 14.7941C118.1 14.3581 118.749 14.072 119.792 14.072V13.072V12.072C118.372 12.072 117.133 12.4739 116.237 13.4139L116.96 14.104ZM119.792 13.072V14.072C120.182 14.072 120.554 14.1238 120.91 14.2255L121.185 13.264L121.459 12.3025C120.919 12.1482 120.363 12.072 119.792 12.072V13.072ZM121.185 13.264L120.91 14.2255C121.233 14.3179 121.469 14.4515 121.646 14.6092L122.312 13.864L122.979 13.1188C122.548 12.7325 122.032 12.4661 121.459 12.3025L121.185 13.264ZM122.312 13.864L121.402 13.4515L120.826 14.7235L121.736 15.136L122.647 15.5485L123.223 14.2765L122.312 13.864ZM121.736 15.136L122.391 14.3803C122.039 14.0749 121.632 13.8567 121.184 13.7222L120.896 14.68L120.609 15.6378C120.801 15.6953 120.954 15.7811 121.082 15.8917L121.736 15.136ZM120.896 14.68L121.227 13.7361C120.792 13.5839 120.335 13.512 119.865 13.512V14.512V15.512C120.13 15.512 120.361 15.5521 120.566 15.6239L120.896 14.68ZM119.865 14.512V13.512C118.958 13.512 118.112 13.769 117.487 14.4195L118.208 15.112L118.93 15.8045C119.073 15.655 119.331 15.512 119.865 15.512V14.512ZM118.208 15.112L117.487 14.4195C116.862 15.0709 116.632 15.9532 116.632 16.888H117.632H118.632C118.632 16.2548 118.787 15.9531 118.93 15.8045L118.208 15.112ZM117.632 16.888H116.632V18.808H117.632H118.632V16.888H117.632ZM117.632 18.808L116.634 18.8685L116.682 19.6605L117.681 19.6L118.679 19.5395L118.631 18.7475L117.632 18.808ZM117.681 19.6H116.681V31H117.681H118.681V19.6H117.681ZM117.681 31V30H115.977V31V32H117.681V31ZM113.721 19.816H114.721V18.4H113.721H112.721V19.816H113.721ZM113.721 18.4V19.4H121.521V18.4V17.4H113.721V18.4ZM121.521 18.4H120.521V19.816H121.521H122.521V18.4H121.521ZM121.521 19.816V18.816H113.721V19.816V20.816H121.521V19.816ZM123.825 31H124.825V18.4H123.825H122.825V31H123.825ZM123.825 18.4V19.4H125.528V18.4V17.4H123.825V18.4ZM125.528 18.4H124.528V31H125.528H126.528V18.4H125.528ZM125.528 31V30H123.825V31V32H125.528V31ZM124.688 15.616V14.616C124.591 14.616 124.552 14.5937 124.508 14.5489L123.8 15.256L123.093 15.9631C123.529 16.3983 124.082 16.616 124.688 16.616V15.616ZM123.8 15.256L124.508 14.5489C124.453 14.4943 124.441 14.4598 124.441 14.392H123.441H122.441C122.441 14.9962 122.668 15.5377 123.093 15.9631L123.8 15.256ZM123.441 14.392H124.441C124.441 14.3454 124.448 14.3272 124.45 14.3239C124.451 14.3212 124.456 14.3078 124.483 14.2831L123.8 13.552L123.118 12.8209C122.67 13.239 122.441 13.7862 122.441 14.392H123.441ZM123.8 13.552L124.508 14.2591C124.552 14.2143 124.591 14.192 124.688 14.192V13.192V12.192C124.082 12.192 123.529 12.4097 123.093 12.8449L123.8 13.552ZM124.688 13.192V14.192C124.807 14.192 124.853 14.2211 124.894 14.2591L125.576 13.528L126.259 12.7969C125.82 12.3869 125.274 12.192 124.688 12.192V13.192ZM125.576 13.528L124.894 14.2591C124.921 14.2838 124.926 14.2972 124.927 14.2999C124.929 14.3032 124.937 14.3214 124.937 14.368H125.937H126.937C126.937 13.7622 126.707 13.215 126.259 12.7969L125.576 13.528ZM125.937 14.368H124.937C124.937 14.4658 124.914 14.5041 124.869 14.5489L125.576 15.256L126.284 15.9631C126.719 15.5279 126.937 14.9742 126.937 14.368H125.937ZM125.576 15.256L124.845 14.5737C124.83 14.5904 124.82 14.5955 124.811 14.5993C124.799 14.6041 124.763 14.616 124.688 14.616V15.616V16.616C125.297 16.616 125.871 16.4065 126.308 15.9383L125.576 15.256Z" fill="#80F6FB" mask="url(#path-2-outside-1_29_33)"/>
<defs>
<linearGradient id="paint0_linear_29_33" x1="0" y1="21.5" x2="240" y2="21.5" gradientUnits="userSpaceOnUse">
<stop stop-color="#020D14"/>
<stop offset="1" stop-color="#0C4F7A"/>
</linearGradient>
</defs>
</svg>
