<svg width="302" height="54" viewBox="0 0 302 54" fill="none" xmlns="http://www.w3.org/2000/svg">
<path d="M53.0947 2.80156C54.9585 1.00428 57.4468 0 60.036 0H292C297.523 0 302 4.47715 302 10V44C302 49.5228 297.523 54 292 54H12.3884C7.88991 54 5.6795 48.5233 8.91771 45.4008L53.0947 2.80156Z" fill="url(#paint0_linear_29_35)"/>
<mask id="path-2-outside-1_29_35" maskUnits="userSpaceOnUse" x="77" y="13" width="199" height="25" fill="black">
<rect fill="white" x="77" y="13" width="199" height="25"/>
<path d="M88.032 35.144C86.768 35.144 85.6 34.936 84.528 34.52C83.456 34.088 82.528 33.488 81.744 32.72C80.96 31.952 80.344 31.048 79.896 30.008C79.464 28.968 79.248 27.832 79.248 26.6C79.248 25.368 79.464 24.232 79.896 23.192C80.344 22.152 80.96 21.248 81.744 20.48C82.544 19.712 83.48 19.12 84.552 18.704C85.624 18.272 86.792 18.056 88.056 18.056C89.272 18.056 90.416 18.264 91.488 18.68C92.56 19.08 93.464 19.688 94.2 20.504L93.072 21.632C92.384 20.928 91.624 20.424 90.792 20.12C89.96 19.8 89.064 19.64 88.104 19.64C87.096 19.64 86.16 19.816 85.296 20.168C84.432 20.504 83.68 20.992 83.04 21.632C82.4 22.256 81.896 22.992 81.528 23.84C81.176 24.672 81 25.592 81 26.6C81 27.608 81.176 28.536 81.528 29.384C81.896 30.216 82.4 30.952 83.04 31.592C83.68 32.216 84.432 32.704 85.296 33.056C86.16 33.392 87.096 33.56 88.104 33.56C89.064 33.56 89.96 33.4 90.792 33.08C91.624 32.76 92.384 32.248 93.072 31.544L94.2 32.672C93.464 33.488 92.56 34.104 91.488 34.52C90.416 34.936 89.264 35.144 88.032 35.144ZM99.57 25.712H108.45V27.224H99.57V25.712ZM99.762 33.464H109.866V35H97.986V18.2H109.506V19.736H99.762V33.464ZM114.041 35V18.2H120.881C122.673 18.2 124.241 18.56 125.585 19.28C126.945 19.984 128.001 20.968 128.753 22.232C129.505 23.496 129.881 24.952 129.881 26.6C129.881 28.248 129.505 29.704 128.753 30.968C128.001 32.232 126.945 33.224 125.585 33.944C124.241 34.648 122.673 35 120.881 35H114.041ZM115.817 33.464H120.785C122.273 33.464 123.561 33.176 124.649 32.6C125.753 32.008 126.609 31.2 127.217 30.176C127.825 29.136 128.129 27.944 128.129 26.6C128.129 25.24 127.825 24.048 127.217 23.024C126.609 22 125.753 21.2 124.649 20.624C123.561 20.032 122.273 19.736 120.785 19.736H115.817V33.464ZM133.869 35V18.2H140.157C141.581 18.2 142.805 18.432 143.829 18.896C144.853 19.344 145.637 20 146.181 20.864C146.741 21.712 147.021 22.744 147.021 23.96C147.021 25.144 146.741 26.168 146.181 27.032C145.637 27.88 144.853 28.536 143.829 29C142.805 29.448 141.581 29.672 140.157 29.672H134.853L135.645 28.856V35H133.869ZM145.341 35L141.021 28.904H142.941L147.285 35H145.341ZM135.645 29L134.853 28.16H140.109C141.789 28.16 143.061 27.792 143.925 27.056C144.805 26.32 145.245 25.288 145.245 23.96C145.245 22.616 144.805 21.576 143.925 20.84C143.061 20.104 141.789 19.736 140.109 19.736H134.853L135.645 18.896V29ZM148.525 35L156.205 18.2H157.957L165.637 35H163.765L156.709 19.232H157.429L150.373 35H148.525ZM151.549 30.512L152.077 29.072H161.845L162.373 30.512H151.549ZM174.697 35V18.2H180.985C182.409 18.2 183.633 18.432 184.657 18.896C185.681 19.344 186.465 20 187.009 20.864C187.569 21.712 187.849 22.744 187.849 23.96C187.849 25.144 187.569 26.168 187.009 27.032C186.465 27.88 185.681 28.536 184.657 29C183.633 29.464 182.409 29.696 180.985 29.696H175.681L176.473 28.856V35H174.697ZM176.473 29L175.681 28.136H180.937C182.617 28.136 183.889 27.776 184.753 27.056C185.633 26.32 186.073 25.288 186.073 23.96C186.073 22.616 185.633 21.576 184.753 20.84C183.889 20.104 182.617 19.736 180.937 19.736H175.681L176.473 18.896V29ZM199.268 35.144C198.004 35.144 196.828 34.936 195.74 34.52C194.668 34.088 193.732 33.488 192.932 32.72C192.148 31.936 191.532 31.032 191.084 30.008C190.652 28.968 190.436 27.832 190.436 26.6C190.436 25.368 190.652 24.24 191.084 23.216C191.532 22.176 192.148 21.272 192.932 20.504C193.732 19.72 194.668 19.12 195.74 18.704C196.812 18.272 197.988 18.056 199.268 18.056C200.532 18.056 201.7 18.272 202.772 18.704C203.844 19.12 204.772 19.712 205.556 20.48C206.356 21.248 206.972 22.152 207.404 23.192C207.852 24.232 208.076 25.368 208.076 26.6C208.076 27.832 207.852 28.968 207.404 30.008C206.972 31.048 206.356 31.952 205.556 32.72C204.772 33.488 203.844 34.088 202.772 34.52C201.7 34.936 200.532 35.144 199.268 35.144ZM199.268 33.56C200.276 33.56 201.204 33.392 202.052 33.056C202.916 32.704 203.66 32.216 204.284 31.592C204.924 30.952 205.42 30.216 205.772 29.384C206.124 28.536 206.3 27.608 206.3 26.6C206.3 25.592 206.124 24.672 205.772 23.84C205.42 22.992 204.924 22.256 204.284 21.632C203.66 20.992 202.916 20.504 202.052 20.168C201.204 19.816 200.276 19.64 199.268 19.64C198.26 19.64 197.324 19.816 196.46 20.168C195.596 20.504 194.844 20.992 194.204 21.632C193.58 22.256 193.084 22.992 192.715 23.84C192.363 24.672 192.188 25.592 192.188 26.6C192.188 27.592 192.363 28.512 192.715 29.36C193.084 30.208 193.58 30.952 194.204 31.592C194.844 32.216 195.596 32.704 196.46 33.056C197.324 33.392 198.26 33.56 199.268 33.56ZM219.352 35.144C218.088 35.144 216.92 34.936 215.848 34.52C214.776 34.088 213.848 33.488 213.064 32.72C212.28 31.952 211.664 31.048 211.216 30.008C210.784 28.968 210.568 27.832 210.568 26.6C210.568 25.368 210.784 24.232 211.216 23.192C211.664 22.152 212.28 21.248 213.064 20.48C213.864 19.712 214.8 19.12 215.872 18.704C216.944 18.272 218.112 18.056 219.376 18.056C220.592 18.056 221.736 18.264 222.808 18.68C223.88 19.08 224.784 19.688 225.52 20.504L224.392 21.632C223.704 20.928 222.944 20.424 222.112 20.12C221.28 19.8 220.384 19.64 219.424 19.64C218.416 19.64 217.48 19.816 216.616 20.168C215.752 20.504 215 20.992 214.36 21.632C213.72 22.256 213.216 22.992 212.848 23.84C212.496 24.672 212.32 25.592 212.32 26.6C212.32 27.608 212.496 28.536 212.848 29.384C213.216 30.216 213.72 30.952 214.36 31.592C215 32.216 215.752 32.704 216.616 33.056C217.48 33.392 218.416 33.56 219.424 33.56C220.384 33.56 221.28 33.4 222.112 33.08C222.944 32.76 223.704 32.248 224.392 31.544L225.52 32.672C224.784 33.488 223.88 34.104 222.808 34.52C221.736 34.936 220.584 35.144 219.352 35.144ZM230.842 30.824L230.77 28.664L240.946 18.2H242.986L235.57 25.976L234.562 27.056L230.842 30.824ZM229.306 35V18.2H231.082V35H229.306ZM241.378 35L234.13 26.648L235.33 25.352L243.49 35H241.378ZM247.953 25.712H256.833V27.224H247.953V25.712ZM248.145 33.464H258.249V35H246.369V18.2H257.889V19.736H248.145V33.464ZM265.688 35V19.736H259.784V18.2H273.368V19.736H267.464V35H265.688Z"/>
</mask>
<path d="M88.032 35.144C86.768 35.144 85.6 34.936 84.528 34.52C83.456 34.088 82.528 33.488 81.744 32.72C80.96 31.952 80.344 31.048 79.896 30.008C79.464 28.968 79.248 27.832 79.248 26.6C79.248 25.368 79.464 24.232 79.896 23.192C80.344 22.152 80.96 21.248 81.744 20.48C82.544 19.712 83.48 19.12 84.552 18.704C85.624 18.272 86.792 18.056 88.056 18.056C89.272 18.056 90.416 18.264 91.488 18.68C92.56 19.08 93.464 19.688 94.2 20.504L93.072 21.632C92.384 20.928 91.624 20.424 90.792 20.12C89.96 19.8 89.064 19.64 88.104 19.64C87.096 19.64 86.16 19.816 85.296 20.168C84.432 20.504 83.68 20.992 83.04 21.632C82.4 22.256 81.896 22.992 81.528 23.84C81.176 24.672 81 25.592 81 26.6C81 27.608 81.176 28.536 81.528 29.384C81.896 30.216 82.4 30.952 83.04 31.592C83.68 32.216 84.432 32.704 85.296 33.056C86.16 33.392 87.096 33.56 88.104 33.56C89.064 33.56 89.96 33.4 90.792 33.08C91.624 32.76 92.384 32.248 93.072 31.544L94.2 32.672C93.464 33.488 92.56 34.104 91.488 34.52C90.416 34.936 89.264 35.144 88.032 35.144ZM99.57 25.712H108.45V27.224H99.57V25.712ZM99.762 33.464H109.866V35H97.986V18.2H109.506V19.736H99.762V33.464ZM114.041 35V18.2H120.881C122.673 18.2 124.241 18.56 125.585 19.28C126.945 19.984 128.001 20.968 128.753 22.232C129.505 23.496 129.881 24.952 129.881 26.6C129.881 28.248 129.505 29.704 128.753 30.968C128.001 32.232 126.945 33.224 125.585 33.944C124.241 34.648 122.673 35 120.881 35H114.041ZM115.817 33.464H120.785C122.273 33.464 123.561 33.176 124.649 32.6C125.753 32.008 126.609 31.2 127.217 30.176C127.825 29.136 128.129 27.944 128.129 26.6C128.129 25.24 127.825 24.048 127.217 23.024C126.609 22 125.753 21.2 124.649 20.624C123.561 20.032 122.273 19.736 120.785 19.736H115.817V33.464ZM133.869 35V18.2H140.157C141.581 18.2 142.805 18.432 143.829 18.896C144.853 19.344 145.637 20 146.181 20.864C146.741 21.712 147.021 22.744 147.021 23.96C147.021 25.144 146.741 26.168 146.181 27.032C145.637 27.88 144.853 28.536 143.829 29C142.805 29.448 141.581 29.672 140.157 29.672H134.853L135.645 28.856V35H133.869ZM145.341 35L141.021 28.904H142.941L147.285 35H145.341ZM135.645 29L134.853 28.16H140.109C141.789 28.16 143.061 27.792 143.925 27.056C144.805 26.32 145.245 25.288 145.245 23.96C145.245 22.616 144.805 21.576 143.925 20.84C143.061 20.104 141.789 19.736 140.109 19.736H134.853L135.645 18.896V29ZM148.525 35L156.205 18.2H157.957L165.637 35H163.765L156.709 19.232H157.429L150.373 35H148.525ZM151.549 30.512L152.077 29.072H161.845L162.373 30.512H151.549ZM174.697 35V18.2H180.985C182.409 18.2 183.633 18.432 184.657 18.896C185.681 19.344 186.465 20 187.009 20.864C187.569 21.712 187.849 22.744 187.849 23.96C187.849 25.144 187.569 26.168 187.009 27.032C186.465 27.88 185.681 28.536 184.657 29C183.633 29.464 182.409 29.696 180.985 29.696H175.681L176.473 28.856V35H174.697ZM176.473 29L175.681 28.136H180.937C182.617 28.136 183.889 27.776 184.753 27.056C185.633 26.32 186.073 25.288 186.073 23.96C186.073 22.616 185.633 21.576 184.753 20.84C183.889 20.104 182.617 19.736 180.937 19.736H175.681L176.473 18.896V29ZM199.268 35.144C198.004 35.144 196.828 34.936 195.74 34.52C194.668 34.088 193.732 33.488 192.932 32.72C192.148 31.936 191.532 31.032 191.084 30.008C190.652 28.968 190.436 27.832 190.436 26.6C190.436 25.368 190.652 24.24 191.084 23.216C191.532 22.176 192.148 21.272 192.932 20.504C193.732 19.72 194.668 19.12 195.74 18.704C196.812 18.272 197.988 18.056 199.268 18.056C200.532 18.056 201.7 18.272 202.772 18.704C203.844 19.12 204.772 19.712 205.556 20.48C206.356 21.248 206.972 22.152 207.404 23.192C207.852 24.232 208.076 25.368 208.076 26.6C208.076 27.832 207.852 28.968 207.404 30.008C206.972 31.048 206.356 31.952 205.556 32.72C204.772 33.488 203.844 34.088 202.772 34.52C201.7 34.936 200.532 35.144 199.268 35.144ZM199.268 33.56C200.276 33.56 201.204 33.392 202.052 33.056C202.916 32.704 203.66 32.216 204.284 31.592C204.924 30.952 205.42 30.216 205.772 29.384C206.124 28.536 206.3 27.608 206.3 26.6C206.3 25.592 206.124 24.672 205.772 23.84C205.42 22.992 204.924 22.256 204.284 21.632C203.66 20.992 202.916 20.504 202.052 20.168C201.204 19.816 200.276 19.64 199.268 19.64C198.26 19.64 197.324 19.816 196.46 20.168C195.596 20.504 194.844 20.992 194.204 21.632C193.58 22.256 193.084 22.992 192.715 23.84C192.363 24.672 192.188 25.592 192.188 26.6C192.188 27.592 192.363 28.512 192.715 29.36C193.084 30.208 193.58 30.952 194.204 31.592C194.844 32.216 195.596 32.704 196.46 33.056C197.324 33.392 198.26 33.56 199.268 33.56ZM219.352 35.144C218.088 35.144 216.92 34.936 215.848 34.52C214.776 34.088 213.848 33.488 213.064 32.72C212.28 31.952 211.664 31.048 211.216 30.008C210.784 28.968 210.568 27.832 210.568 26.6C210.568 25.368 210.784 24.232 211.216 23.192C211.664 22.152 212.28 21.248 213.064 20.48C213.864 19.712 214.8 19.12 215.872 18.704C216.944 18.272 218.112 18.056 219.376 18.056C220.592 18.056 221.736 18.264 222.808 18.68C223.88 19.08 224.784 19.688 225.52 20.504L224.392 21.632C223.704 20.928 222.944 20.424 222.112 20.12C221.28 19.8 220.384 19.64 219.424 19.64C218.416 19.64 217.48 19.816 216.616 20.168C215.752 20.504 215 20.992 214.36 21.632C213.72 22.256 213.216 22.992 212.848 23.84C212.496 24.672 212.32 25.592 212.32 26.6C212.32 27.608 212.496 28.536 212.848 29.384C213.216 30.216 213.72 30.952 214.36 31.592C215 32.216 215.752 32.704 216.616 33.056C217.48 33.392 218.416 33.56 219.424 33.56C220.384 33.56 221.28 33.4 222.112 33.08C222.944 32.76 223.704 32.248 224.392 31.544L225.52 32.672C224.784 33.488 223.88 34.104 222.808 34.52C221.736 34.936 220.584 35.144 219.352 35.144ZM230.842 30.824L230.77 28.664L240.946 18.2H242.986L235.57 25.976L234.562 27.056L230.842 30.824ZM229.306 35V18.2H231.082V35H229.306ZM241.378 35L234.13 26.648L235.33 25.352L243.49 35H241.378ZM247.953 25.712H256.833V27.224H247.953V25.712ZM248.145 33.464H258.249V35H246.369V18.2H257.889V19.736H248.145V33.464ZM265.688 35V19.736H259.784V18.2H273.368V19.736H267.464V35H265.688Z" fill="white"/>
<path d="M84.528 34.52L83.7804 36.375L83.7924 36.3799L83.8045 36.3845L84.528 34.52ZM81.744 32.72L80.3444 34.1487H80.3444L81.744 32.72ZM79.896 30.008L78.049 30.7752L78.054 30.7873L78.0592 30.7992L79.896 30.008ZM79.896 23.192L78.0592 22.4008L78.054 22.4127L78.049 22.4248L79.896 23.192ZM81.744 20.48L80.3589 19.0372L80.3517 19.0442L80.3444 19.0513L81.744 20.48ZM84.552 18.704L85.2755 20.5685L85.2876 20.5639L85.2996 20.559L84.552 18.704ZM91.488 18.68L90.7645 20.5445L90.7766 20.5492L90.7888 20.5538L91.488 18.68ZM94.2 20.504L95.6142 21.9182L96.9574 20.575L95.6851 19.1645L94.2 20.504ZM93.072 21.632L91.6416 23.0299L93.0557 24.4768L94.4862 23.0462L93.072 21.632ZM90.792 20.12L90.074 21.9867L90.0898 21.9927L90.1056 21.9985L90.792 20.12ZM85.296 20.168L86.0209 22.032L86.0358 22.0262L86.0506 22.0202L85.296 20.168ZM83.04 21.632L84.4362 23.064L84.4453 23.0552L84.4542 23.0462L83.04 21.632ZM81.528 23.84L79.6933 23.0438L79.6896 23.0522L79.6861 23.0607L81.528 23.84ZM81.528 29.384L79.6808 30.1508L79.6896 30.172L79.6989 30.193L81.528 29.384ZM83.04 31.592L81.6258 33.0062L81.6347 33.0152L81.6438 33.024L83.04 31.592ZM85.296 33.056L84.5414 34.9082L84.5562 34.9142L84.5711 34.92L85.296 33.056ZM90.792 33.08L91.51 34.9467V34.9467L90.792 33.08ZM93.072 31.544L94.4862 30.1298L93.0557 28.6992L91.6416 30.1461L93.072 31.544ZM94.2 32.672L95.6851 34.0115L96.9574 32.601L95.6142 31.2578L94.2 32.672ZM91.488 34.52L92.2116 36.3845V36.3845L91.488 34.52ZM88.032 35.144V33.144C86.9909 33.144 86.071 32.9735 85.2515 32.6555L84.528 34.52L83.8045 36.3845C85.129 36.8985 86.5451 37.144 88.032 37.144V35.144ZM84.528 34.52L85.2756 32.665C84.4336 32.3257 83.7304 31.8662 83.1436 31.2913L81.744 32.72L80.3444 34.1487C81.3256 35.1098 82.4784 35.8503 83.7804 36.375L84.528 34.52ZM81.744 32.72L83.1436 31.2913C82.5513 30.7111 82.0813 30.0256 81.7328 29.2168L79.896 30.008L78.0592 30.7992C78.6067 32.0704 79.3687 33.1929 80.3444 34.1487L81.744 32.72ZM79.896 30.008L81.743 29.2408C81.4211 28.4659 81.248 27.5936 81.248 26.6H79.248H77.248C77.248 28.0704 77.5069 29.4701 78.049 30.7752L79.896 30.008ZM79.248 26.6H81.248C81.248 25.6064 81.4211 24.7341 81.743 23.9592L79.896 23.192L78.049 22.4248C77.5069 23.7299 77.248 25.1296 77.248 26.6H79.248ZM79.896 23.192L81.7328 23.9832C82.0813 23.1744 82.5513 22.4889 83.1436 21.9087L81.744 20.48L80.3444 19.0513C79.3687 20.0071 78.6067 21.1296 78.0592 22.4008L79.896 23.192ZM81.744 20.48L83.1291 21.9228C83.7315 21.3444 84.4405 20.8926 85.2755 20.5685L84.552 18.704L83.8285 16.8395C82.5195 17.3474 81.3565 18.0796 80.3589 19.0372L81.744 20.48ZM84.552 18.704L85.2996 20.559C86.1126 20.2314 87.0241 20.056 88.056 20.056V18.056V16.056C86.5599 16.056 85.1354 16.3126 83.8044 16.849L84.552 18.704ZM88.056 18.056V20.056C89.0389 20.056 89.9362 20.2231 90.7645 20.5445L91.488 18.68L92.2116 16.8155C90.8958 16.3049 89.5051 16.056 88.056 16.056V18.056ZM91.488 18.68L90.7888 20.5538C91.5725 20.8462 92.2031 21.2762 92.7149 21.8435L94.2 20.504L95.6851 19.1645C94.7249 18.0998 93.5475 17.3138 92.1872 16.8062L91.488 18.68ZM94.2 20.504L92.7858 19.0898L91.6578 20.2178L93.072 21.632L94.4862 23.0462L95.6142 21.9182L94.2 20.504ZM93.072 21.632L94.5024 20.2341C93.6289 19.3403 92.6211 18.659 91.4784 18.2415L90.792 20.12L90.1056 21.9985C90.6269 22.189 91.1391 22.5157 91.6416 23.0299L93.072 21.632ZM90.792 20.12L91.51 18.2533C90.4318 17.8386 89.2905 17.64 88.104 17.64V19.64V21.64C88.8375 21.64 89.4882 21.7614 90.074 21.9867L90.792 20.12ZM88.104 19.64V17.64C86.8583 17.64 85.6637 17.8586 84.5414 18.3158L85.296 20.168L86.0506 22.0202C86.6563 21.7734 87.3337 21.64 88.104 21.64V19.64ZM85.296 20.168L84.5711 18.304C83.4551 18.738 82.4667 19.3769 81.6258 20.2178L83.04 21.632L84.4542 23.0462C84.8933 22.6071 85.4089 22.27 86.0209 22.032L85.296 20.168ZM83.04 21.632L81.6438 20.2C80.8113 21.0117 80.1612 21.9657 79.6933 23.0438L81.528 23.84L83.3627 24.6362C83.6308 24.0183 83.9887 23.5003 84.4362 23.064L83.04 21.632ZM81.528 23.84L79.6861 23.0607C79.2183 24.1663 79 25.3553 79 26.6H81H83C83 25.8287 83.1337 25.1777 83.3699 24.6193L81.528 23.84ZM81 26.6H79C79 27.8453 79.2185 29.0369 79.6808 30.1508L81.528 29.384L83.3752 28.6172C83.1335 28.0351 83 27.3707 83 26.6H81ZM81.528 29.384L79.6989 30.193C80.1662 31.2494 80.8104 32.1909 81.6258 33.0062L83.04 31.592L84.4542 30.1778C83.9896 29.7131 83.6258 29.1826 83.3571 28.575L81.528 29.384ZM83.04 31.592L81.6438 33.024C82.4766 33.836 83.4491 34.4632 84.5414 34.9082L85.296 33.056L86.0506 31.2038C85.4149 30.9448 84.8834 30.596 84.4362 30.16L83.04 31.592ZM85.296 33.056L84.5711 34.92C85.6857 35.3534 86.8698 35.56 88.104 35.56V33.56V31.56C87.3222 31.56 86.6343 31.4306 86.0209 31.192L85.296 33.056ZM88.104 33.56V35.56C89.2905 35.56 90.4318 35.3614 91.51 34.9467L90.792 33.08L90.074 31.2133C89.4882 31.4386 88.8375 31.56 88.104 31.56V33.56ZM90.792 33.08L91.51 34.9467C92.6372 34.5131 93.6345 33.8299 94.5024 32.9419L93.072 31.544L91.6416 30.1461C91.1335 30.6661 90.6108 31.0069 90.074 31.2133L90.792 33.08ZM93.072 31.544L91.6578 32.9582L92.7858 34.0862L94.2 32.672L95.6142 31.2578L94.4862 30.1298L93.072 31.544ZM94.2 32.672L92.7149 31.3325C92.198 31.9055 91.559 32.3471 90.7645 32.6555L91.488 34.52L92.2116 36.3845C93.561 35.8609 94.73 35.0705 95.6851 34.0115L94.2 32.672ZM91.488 34.52L90.7645 32.6555C89.9392 32.9757 89.0343 33.144 88.032 33.144V35.144V37.144C89.4937 37.144 90.8928 36.8963 92.2116 36.3845L91.488 34.52ZM99.57 25.712V23.712H97.57V25.712H99.57ZM108.45 25.712H110.45V23.712H108.45V25.712ZM108.45 27.224V29.224H110.45V27.224H108.45ZM99.57 27.224H97.57V29.224H99.57V27.224ZM99.762 33.464H97.762V35.464H99.762V33.464ZM109.866 33.464H111.866V31.464H109.866V33.464ZM109.866 35V37H111.866V35H109.866ZM97.986 35H95.986V37H97.986V35ZM97.986 18.2V16.2H95.986V18.2H97.986ZM109.506 18.2H111.506V16.2H109.506V18.2ZM109.506 19.736V21.736H111.506V19.736H109.506ZM99.762 19.736V17.736H97.762V19.736H99.762ZM99.57 25.712V27.712H108.45V25.712V23.712H99.57V25.712ZM108.45 25.712H106.45V27.224H108.45H110.45V25.712H108.45ZM108.45 27.224V25.224H99.57V27.224V29.224H108.45V27.224ZM99.57 27.224H101.57V25.712H99.57H97.57V27.224H99.57ZM99.762 33.464V35.464H109.866V33.464V31.464H99.762V33.464ZM109.866 33.464H107.866V35H109.866H111.866V33.464H109.866ZM109.866 35V33H97.986V35V37H109.866V35ZM97.986 35H99.986V18.2H97.986H95.986V35H97.986ZM97.986 18.2V20.2H109.506V18.2V16.2H97.986V18.2ZM109.506 18.2H107.506V19.736H109.506H111.506V18.2H109.506ZM109.506 19.736V17.736H99.762V19.736V21.736H109.506V19.736ZM99.762 19.736H97.762V33.464H99.762H101.762V19.736H99.762ZM114.041 35H112.041V37H114.041V35ZM114.041 18.2V16.2H112.041V18.2H114.041ZM125.585 19.28L124.64 21.043L124.653 21.0496L124.665 21.0561L125.585 19.28ZM128.753 22.232L130.472 21.2094L130.472 21.2094L128.753 22.232ZM128.753 30.968L130.472 31.9906H130.472L128.753 30.968ZM125.585 33.944L126.513 35.7157L126.52 35.7116L125.585 33.944ZM115.817 33.464H113.817V35.464H115.817V33.464ZM124.649 32.6L125.584 34.3676L125.594 34.3626L124.649 32.6ZM127.217 30.176L128.936 31.1971L128.943 31.1854L127.217 30.176ZM127.217 23.024L128.936 22.0029V22.0029L127.217 23.024ZM124.649 20.624L123.693 22.3808L123.708 22.3891L123.724 22.3972L124.649 20.624ZM115.817 19.736V17.736H113.817V19.736H115.817ZM114.041 35H116.041V18.2H114.041H112.041V35H114.041ZM114.041 18.2V20.2H120.881V18.2V16.2H114.041V18.2ZM120.881 18.2V20.2C122.401 20.2 123.634 20.5038 124.64 21.043L125.585 19.28L126.529 17.517C124.848 16.6162 122.944 16.2 120.881 16.2V18.2ZM125.585 19.28L124.665 21.0561C125.708 21.5959 126.481 22.3251 127.034 23.2546L128.753 22.232L130.472 21.2094C129.521 19.6109 128.181 18.3721 126.504 17.5039L125.585 19.28ZM128.753 22.232L127.034 23.2546C127.58 24.1732 127.881 25.2675 127.881 26.6H129.881H131.881C131.881 24.6365 131.429 22.8188 130.472 21.2094L128.753 22.232ZM129.881 26.6H127.881C127.881 27.9325 127.58 29.0268 127.034 29.9454L128.753 30.968L130.472 31.9906C131.429 30.3812 131.881 28.5635 131.881 26.6H129.881ZM128.753 30.968L127.034 29.9454C126.478 30.879 125.7 31.6199 124.649 32.1764L125.585 33.944L126.52 35.7116C128.189 34.8281 129.523 33.585 130.472 31.9906L128.753 30.968ZM125.585 33.944L124.657 32.1723C123.647 32.7014 122.408 33 120.881 33V35V37C122.938 37 124.835 36.5946 126.513 35.7157L125.585 33.944ZM120.881 35V33H114.041V35V37H120.881V35ZM115.817 33.464V35.464H120.785V33.464V31.464H115.817V33.464ZM120.785 33.464V35.464C122.531 35.464 124.154 35.1249 125.584 34.3676L124.649 32.6L123.713 30.8324C122.968 31.2271 122.014 31.464 120.785 31.464V33.464ZM124.649 32.6L125.594 34.3626C127.001 33.6078 128.133 32.5507 128.936 31.1971L127.217 30.176L125.497 29.1549C125.085 29.8493 124.504 30.4082 123.704 30.8374L124.649 32.6ZM127.217 30.176L128.943 31.1854C129.75 29.8048 130.129 28.2567 130.129 26.6H128.129H126.129C126.129 27.6313 125.899 28.4672 125.49 29.1666L127.217 30.176ZM128.129 26.6H130.129C130.129 24.9326 129.753 23.3777 128.936 22.0029L127.217 23.024L125.497 24.0451C125.897 24.7183 126.129 25.5474 126.129 26.6H128.129ZM127.217 23.024L128.936 22.0029C128.13 20.6443 126.992 19.5906 125.574 18.8508L124.649 20.624L123.724 22.3972C124.514 22.8094 125.088 23.3557 125.497 24.0451L127.217 23.024ZM124.649 20.624L125.605 18.8672C124.17 18.0864 122.54 17.736 120.785 17.736V19.736V21.736C122.006 21.736 122.952 21.9776 123.693 22.3808L124.649 20.624ZM120.785 19.736V17.736H115.817V19.736V21.736H120.785V19.736ZM115.817 19.736H113.817V33.464H115.817H117.817V19.736H115.817ZM133.869 35H131.869V37H133.869V35ZM133.869 18.2V16.2H131.869V18.2H133.869ZM143.829 18.896L143.003 20.7177L143.015 20.7231L143.027 20.7283L143.829 18.896ZM146.181 20.864L144.488 21.9296L144.5 21.948L144.512 21.9661L146.181 20.864ZM146.181 27.032L144.502 25.9442L144.497 25.9521L146.181 27.032ZM143.829 29L144.63 30.8323L144.642 30.8271L144.654 30.8217L143.829 29ZM134.853 29.672L133.418 28.279L130.124 31.672H134.853V29.672ZM135.645 28.856H137.645V23.9238L134.21 27.463L135.645 28.856ZM135.645 35V37H137.645V35H135.645ZM145.341 35L143.709 36.1564L144.307 37H145.341V35ZM141.021 28.904V26.904H137.152L139.389 30.0604L141.021 28.904ZM142.941 28.904L144.57 27.7433L143.971 26.904H142.941V28.904ZM147.285 35V37H151.166L148.914 33.8393L147.285 35ZM135.645 29L134.19 30.372L137.645 34.0366V29H135.645ZM134.853 28.16V26.16H130.218L133.398 29.532L134.853 28.16ZM143.925 27.056L142.642 25.5218L142.635 25.5276L142.628 25.5335L143.925 27.056ZM143.925 20.84L142.628 22.3625L142.635 22.3684L142.642 22.3742L143.925 20.84ZM134.853 19.736L133.398 18.364L130.218 21.736H134.853V19.736ZM135.645 18.896H137.645V13.8594L134.19 17.524L135.645 18.896ZM133.869 35H135.869V18.2H133.869H131.869V35H133.869ZM133.869 18.2V20.2H140.157V18.2V16.2H133.869V18.2ZM140.157 18.2V20.2C141.369 20.2 142.298 20.3981 143.003 20.7177L143.829 18.896L144.654 17.0743C143.312 16.4659 141.792 16.2 140.157 16.2V18.2ZM143.829 18.896L143.027 20.7283C143.72 21.0316 144.178 21.4367 144.488 21.9296L146.181 20.864L147.873 19.7984C147.096 18.5633 145.985 17.6564 144.63 17.0637L143.829 18.896ZM146.181 20.864L144.512 21.9661C144.817 22.4275 145.021 23.0577 145.021 23.96H147.021H149.021C149.021 22.4303 148.665 20.9965 147.85 19.7619L146.181 20.864ZM147.021 23.96H145.021C145.021 24.8173 144.822 25.4506 144.503 25.9442L146.181 27.032L147.859 28.1198C148.659 26.8854 149.021 25.4707 149.021 23.96H147.021ZM146.181 27.032L144.497 25.9521C144.185 26.4384 143.718 26.8545 143.003 27.1783L143.829 29L144.654 30.8217C145.988 30.2175 147.088 29.3216 147.864 28.1119L146.181 27.032ZM143.829 29L143.027 27.1677C142.315 27.4792 141.378 27.672 140.157 27.672V29.672V31.672C141.784 31.672 143.295 31.4168 144.63 30.8323L143.829 29ZM140.157 29.672V27.672H134.853V29.672V31.672H140.157V29.672ZM134.853 29.672L136.288 31.065L137.08 30.249L135.645 28.856L134.21 27.463L133.418 28.279L134.853 29.672ZM135.645 28.856H133.645V35H135.645H137.645V28.856H135.645ZM135.645 35V33H133.869V35V37H135.645V35ZM145.341 35L146.973 33.8436L142.653 27.7476L141.021 28.904L139.389 30.0604L143.709 36.1564L145.341 35ZM141.021 28.904V30.904H142.941V28.904V26.904H141.021V28.904ZM142.941 28.904L141.312 30.0647L145.656 36.1607L147.285 35L148.914 33.8393L144.57 27.7433L142.941 28.904ZM147.285 35V33H145.341V35V37H147.285V35ZM135.645 29L137.1 27.628L136.308 26.788L134.853 28.16L133.398 29.532L134.19 30.372L135.645 29ZM134.853 28.16V30.16H140.109V28.16V26.16H134.853V28.16ZM140.109 28.16V30.16C142.043 30.16 143.857 29.7411 145.222 28.5785L143.925 27.056L142.628 25.5335C142.265 25.8429 141.535 26.16 140.109 26.16V28.16ZM143.925 27.056L145.208 28.5902C146.616 27.4121 147.245 25.7762 147.245 23.96H145.245H143.245C143.245 24.7998 142.993 25.2279 142.642 25.5218L143.925 27.056ZM145.245 23.96H147.245C147.245 22.1366 146.622 20.4888 145.208 19.3058L143.925 20.84L142.642 22.3742C142.987 22.6632 143.245 23.0954 143.245 23.96H145.245ZM143.925 20.84L145.222 19.3175C143.857 18.1549 142.043 17.736 140.109 17.736V19.736V21.736C141.535 21.736 142.265 22.0531 142.628 22.3625L143.925 20.84ZM140.109 19.736V17.736H134.853V19.736V21.736H140.109V19.736ZM134.853 19.736L136.308 21.108L137.1 20.268L135.645 18.896L134.19 17.524L133.398 18.364L134.853 19.736ZM135.645 18.896H133.645V29H135.645H137.645V18.896H135.645ZM148.525 35L146.706 34.1685L145.411 37H148.525V35ZM156.205 18.2V16.2H154.92L154.386 17.3685L156.205 18.2ZM157.957 18.2L159.776 17.3685L159.241 16.2H157.957V18.2ZM165.637 35V37H168.75L167.456 34.1685L165.637 35ZM163.765 35L161.939 35.8169L162.468 37H163.765V35ZM156.709 19.232V17.232H153.622L154.883 20.0489L156.709 19.232ZM157.429 19.232L159.254 20.0489L160.515 17.232H157.429V19.232ZM150.373 35V37H151.669L152.198 35.8169L150.373 35ZM151.549 30.512L149.671 29.8235L148.685 32.512H151.549V30.512ZM152.077 29.072V27.072H150.68L150.199 28.3835L152.077 29.072ZM161.845 29.072L163.722 28.3835L163.241 27.072H161.845V29.072ZM162.373 30.512V32.512H165.236L164.25 29.8235L162.373 30.512ZM148.525 35L150.344 35.8315L158.024 19.0315L156.205 18.2L154.386 17.3685L146.706 34.1685L148.525 35ZM156.205 18.2V20.2H157.957V18.2V16.2H156.205V18.2ZM157.957 18.2L156.138 19.0315L163.818 35.8315L165.637 35L167.456 34.1685L159.776 17.3685L157.957 18.2ZM165.637 35V33H163.765V35V37H165.637V35ZM163.765 35L165.59 34.1831L158.534 18.4151L156.709 19.232L154.883 20.0489L161.939 35.8169L163.765 35ZM156.709 19.232V21.232H157.429V19.232V17.232H156.709V19.232ZM157.429 19.232L155.603 18.4151L148.547 34.1831L150.373 35L152.198 35.8169L159.254 20.0489L157.429 19.232ZM150.373 35V33H148.525V35V37H150.373V35ZM151.549 30.512L153.426 31.2005L153.954 29.7605L152.077 29.072L150.199 28.3835L149.671 29.8235L151.549 30.512ZM152.077 29.072V31.072H161.845V29.072V27.072H152.077V29.072ZM161.845 29.072L159.967 29.7605L160.495 31.2005L162.373 30.512L164.25 29.8235L163.722 28.3835L161.845 29.072ZM162.373 30.512V28.512H151.549V30.512V32.512H162.373V30.512ZM174.697 35H172.697V37H174.697V35ZM174.697 18.2V16.2H172.697V18.2H174.697ZM184.657 18.896L183.831 20.7177L183.843 20.7231L183.855 20.7283L184.657 18.896ZM187.009 20.864L185.316 21.9296L185.328 21.948L185.34 21.9661L187.009 20.864ZM187.009 27.032L185.331 25.9442L185.326 25.9521L187.009 27.032ZM184.657 29L185.482 30.8217V30.8217L184.657 29ZM175.681 29.696L174.226 28.324L171.046 31.696H175.681V29.696ZM176.473 28.856H178.473V23.8194L175.018 27.484L176.473 28.856ZM176.473 35V37H178.473V35H176.473ZM176.473 29L174.999 30.3514L178.473 34.1416V29H176.473ZM175.681 28.136V26.136H171.134L174.207 29.4874L175.681 28.136ZM184.753 27.056L186.033 28.5924L186.036 28.5902L184.753 27.056ZM184.753 20.84L183.456 22.3625L183.463 22.3684L183.47 22.3742L184.753 20.84ZM175.681 19.736L174.226 18.364L171.046 21.736H175.681V19.736ZM176.473 18.896H178.473V13.8594L175.018 17.524L176.473 18.896ZM174.697 35H176.697V18.2H174.697H172.697V35H174.697ZM174.697 18.2V20.2H180.985V18.2V16.2H174.697V18.2ZM180.985 18.2V20.2C182.198 20.2 183.126 20.3981 183.831 20.7177L184.657 18.896L185.482 17.0743C184.14 16.4659 182.62 16.2 180.985 16.2V18.2ZM184.657 18.896L183.855 20.7283C184.549 21.0316 185.006 21.4367 185.316 21.9296L187.009 20.864L188.701 19.7984C187.924 18.5633 186.813 17.6564 185.459 17.0637L184.657 18.896ZM187.009 20.864L185.34 21.9661C185.645 22.4275 185.849 23.0577 185.849 23.96H187.849H189.849C189.849 22.4303 189.493 20.9965 188.678 19.7619L187.009 20.864ZM187.849 23.96H185.849C185.849 24.8173 185.651 25.4506 185.331 25.9442L187.009 27.032L188.687 28.1198C189.487 26.8854 189.849 25.4707 189.849 23.96H187.849ZM187.009 27.032L185.326 25.9521C185.014 26.4384 184.546 26.8545 183.831 27.1783L184.657 29L185.482 30.8217C186.816 30.2175 187.916 29.3216 188.692 28.1119L187.009 27.032ZM184.657 29L183.831 27.1783C183.126 27.4979 182.198 27.696 180.985 27.696V29.696V31.696C182.62 31.696 184.14 31.4301 185.482 30.8217L184.657 29ZM180.985 29.696V27.696H175.681V29.696V31.696H180.985V29.696ZM175.681 29.696L177.136 31.068L177.928 30.228L176.473 28.856L175.018 27.484L174.226 28.324L175.681 29.696ZM176.473 28.856H174.473V35H176.473H178.473V28.856H176.473ZM176.473 35V33H174.697V35V37H176.473V35ZM176.473 29L177.947 27.6486L177.155 26.7846L175.681 28.136L174.207 29.4874L174.999 30.3514L176.473 29ZM175.681 28.136V30.136H180.937V28.136V26.136H175.681V28.136ZM180.937 28.136V30.136C182.862 30.136 184.669 29.729 186.033 28.5924L184.753 27.056L183.473 25.5196C183.108 25.823 182.372 26.136 180.937 26.136V28.136ZM184.753 27.056L186.036 28.5902C187.445 27.4121 188.073 25.7762 188.073 23.96H186.073H184.073C184.073 24.7998 183.821 25.2279 183.47 25.5218L184.753 27.056ZM186.073 23.96H188.073C188.073 22.1366 187.45 20.4888 186.036 19.3058L184.753 20.84L183.47 22.3742C183.815 22.6632 184.073 23.0954 184.073 23.96H186.073ZM184.753 20.84L186.05 19.3175C184.685 18.1549 182.871 17.736 180.937 17.736V19.736V21.736C182.363 21.736 183.093 22.0531 183.456 22.3625L184.753 20.84ZM180.937 19.736V17.736H175.681V19.736V21.736H180.937V19.736ZM175.681 19.736L177.136 21.108L177.928 20.268L176.473 18.896L175.018 17.524L174.226 18.364L175.681 19.736ZM176.473 18.896H174.473V29H176.473H178.473V18.896H176.473ZM195.74 34.52L194.992 36.375L195.009 36.3817L195.025 36.3881L195.74 34.52ZM192.932 32.72L191.517 34.1342L191.532 34.1486L191.546 34.1628L192.932 32.72ZM191.084 30.008L189.237 30.7752L189.244 30.7925L189.251 30.8096L191.084 30.008ZM191.084 23.216L189.247 22.4248L189.244 22.4317L189.241 22.4386L191.084 23.216ZM192.932 20.504L194.331 21.9327L194.331 21.9324L192.932 20.504ZM195.74 18.704L196.463 20.5685L196.475 20.5639L196.487 20.559L195.74 18.704ZM202.771 18.704L202.024 20.559L202.036 20.5639L202.048 20.5685L202.771 18.704ZM205.556 20.48L204.156 21.9087L204.163 21.9158L204.17 21.9228L205.556 20.48ZM207.404 23.192L205.557 23.9592L205.562 23.9713L205.567 23.9832L207.404 23.192ZM207.404 30.008L205.567 29.2168L205.562 29.2287L205.557 29.2408L207.404 30.008ZM205.556 32.72L204.17 31.2772L204.163 31.2842L204.156 31.2913L205.556 32.72ZM202.771 34.52L203.495 36.3845L203.507 36.3799L203.519 36.375L202.771 34.52ZM202.051 33.056L202.788 34.9154L202.797 34.9118L202.806 34.9082L202.051 33.056ZM204.284 31.592L202.869 30.1778V30.1778L204.284 31.592ZM205.771 29.384L207.613 30.1633L207.619 30.1508L205.771 29.384ZM205.771 23.84L203.924 24.6068L203.93 24.6193L205.771 23.84ZM204.284 21.632L202.852 23.0282L202.869 23.0463L202.887 23.064L204.284 21.632ZM202.051 20.168L201.285 22.0152L201.306 22.0238L201.327 22.032L202.051 20.168ZM196.46 20.168L197.184 22.032L197.199 22.0262L197.214 22.0202L196.46 20.168ZM194.203 21.632L192.789 20.2178V20.2178L194.203 21.632ZM192.715 23.84L190.881 23.0438L190.877 23.0522L190.874 23.0607L192.715 23.84ZM192.715 29.36L190.868 30.1268L190.874 30.1415L190.881 30.1562L192.715 29.36ZM194.203 31.592L192.771 32.9882L192.789 33.0063L192.807 33.024L194.203 31.592ZM196.46 33.056L195.705 34.9082L195.72 34.9142L195.735 34.92L196.46 33.056ZM199.268 35.144V33.144C198.227 33.144 197.295 32.9735 196.454 32.6519L195.74 34.52L195.025 36.3881C196.36 36.8985 197.78 37.144 199.268 37.144V35.144ZM195.74 34.52L196.487 32.665C195.642 32.3243 194.925 31.8609 194.317 31.2772L192.932 32.72L191.546 34.1628C192.538 35.1151 193.693 35.8517 194.992 36.375L195.74 34.52ZM192.932 32.72L194.346 31.3058C193.74 30.6996 193.265 30.0038 192.916 29.2064L191.084 30.008L189.251 30.8096C189.798 32.0602 190.555 33.1724 191.517 34.1342L192.932 32.72ZM191.084 30.008L192.93 29.2408C192.609 28.4659 192.436 27.5936 192.436 26.6H190.436H188.436C188.436 28.0704 188.694 29.4701 189.237 30.7752L191.084 30.008ZM190.436 26.6H192.436C192.436 25.606 192.609 24.7459 192.926 23.9934L191.084 23.216L189.241 22.4386C188.694 23.7341 188.436 25.13 188.436 26.6H190.436ZM191.084 23.216L192.92 24.0072C193.269 23.1984 193.739 22.5129 194.331 21.9327L192.932 20.504L191.532 19.0753C190.556 20.0311 189.794 21.1536 189.247 22.4248L191.084 23.216ZM192.932 20.504L194.331 21.9324C194.933 21.3432 195.637 20.8892 196.463 20.5685L195.74 18.704L195.016 16.8395C193.698 17.3508 192.53 18.0968 191.532 19.0756L192.932 20.504ZM195.74 18.704L196.487 20.559C197.297 20.2326 198.216 20.056 199.268 20.056V18.056V16.056C197.759 16.056 196.326 16.3114 194.992 16.849L195.74 18.704ZM199.268 18.056V20.056C200.299 20.056 201.211 20.2314 202.024 20.559L202.771 18.704L203.519 16.849C202.188 16.3126 200.764 16.056 199.268 16.056V18.056ZM202.771 18.704L202.048 20.5685C202.88 20.8913 203.575 21.3393 204.156 21.9087L205.556 20.48L206.955 19.0513C205.968 18.0847 204.807 17.3487 203.495 16.8395L202.771 18.704ZM205.556 20.48L204.17 21.9228C204.768 22.4968 205.229 23.1698 205.557 23.9592L207.404 23.192L209.25 22.4248C208.714 21.1342 207.943 19.9992 206.941 19.0372L205.556 20.48ZM207.404 23.192L205.567 23.9832C205.898 24.7521 206.076 25.6159 206.076 26.6H208.076H210.076C210.076 25.12 209.805 23.7119 209.24 22.4008L207.404 23.192ZM208.076 26.6H206.076C206.076 27.5841 205.898 28.4479 205.567 29.2168L207.404 30.008L209.24 30.7992C209.805 29.4881 210.076 28.08 210.076 26.6H208.076ZM207.404 30.008L205.557 29.2408C205.229 30.0302 204.768 30.7032 204.17 31.2772L205.556 32.72L206.941 34.1628C207.943 33.2008 208.714 32.0658 209.25 30.7752L207.404 30.008ZM205.556 32.72L204.156 31.2913C203.569 31.8662 202.866 32.3257 202.024 32.665L202.771 34.52L203.519 36.375C204.821 35.8503 205.974 35.1098 206.955 34.1487L205.556 32.72ZM202.771 34.52L202.048 32.6555C201.229 32.9735 200.309 33.144 199.268 33.144V35.144V37.144C200.754 37.144 202.17 36.8985 203.495 36.3845L202.771 34.52ZM199.268 33.56V35.56C200.501 35.56 201.682 35.3536 202.788 34.9154L202.051 33.056L201.315 31.1966C200.725 31.4304 200.05 31.56 199.268 31.56V33.56ZM202.051 33.056L202.806 34.9082C203.903 34.4615 204.875 33.8294 205.698 33.0062L204.284 31.592L202.869 30.1778C202.444 30.6026 201.928 30.9465 201.297 31.2038L202.051 33.056ZM204.284 31.592L205.698 33.0062C206.519 32.1844 207.161 31.233 207.613 30.1633L205.771 29.384L203.93 28.6047C203.678 29.199 203.328 29.7196 202.869 30.1778L204.284 31.592ZM205.771 29.384L207.619 30.1508C208.081 29.0369 208.299 27.8453 208.299 26.6H206.299H204.299C204.299 27.3707 204.166 28.0351 203.924 28.6172L205.771 29.384ZM206.299 26.6H208.299C208.299 25.3553 208.081 24.1663 207.613 23.0607L205.771 23.84L203.93 24.6193C204.166 25.1777 204.299 25.8287 204.299 26.6H206.299ZM205.771 23.84L207.619 23.0732C207.166 21.9822 206.519 21.0181 205.68 20.2L204.284 21.632L202.887 23.064C203.328 23.4939 203.673 24.0018 203.924 24.6068L205.771 23.84ZM204.284 21.632L205.715 20.2358C204.884 19.3835 203.897 18.7397 202.776 18.304L202.051 20.168L201.327 22.032C201.934 22.2683 202.435 22.6005 202.852 23.0282L204.284 21.632ZM202.051 20.168L202.818 18.3208C201.704 17.8585 200.513 17.64 199.268 17.64V19.64V21.64C200.038 21.64 200.703 21.7735 201.285 22.0152L202.051 20.168ZM199.268 19.64V17.64C198.022 17.64 196.827 17.8586 195.705 18.3158L196.46 20.168L197.214 22.0202C197.82 21.7734 198.497 21.64 199.268 21.64V19.64ZM196.46 20.168L195.735 18.304C194.619 18.738 193.63 19.3769 192.789 20.2178L194.203 21.632L195.618 23.0462C196.057 22.6071 196.572 22.27 197.184 22.032L196.46 20.168ZM194.203 21.632L192.789 20.2178C191.979 21.0279 191.344 21.9763 190.881 23.0438L192.715 23.84L194.55 24.6362C194.823 24.0077 195.18 23.4841 195.618 23.0462L194.203 21.632ZM192.715 23.84L190.874 23.0607C190.406 24.1663 190.188 25.3553 190.188 26.6H192.188H194.188C194.188 25.8287 194.321 25.1777 194.557 24.6193L192.715 23.84ZM192.188 26.6H190.188C190.188 27.8338 190.408 29.0167 190.868 30.1268L192.715 29.36L194.563 28.5932C194.319 28.0073 194.188 27.3502 194.188 26.6H192.188ZM192.715 29.36L190.881 30.1562C191.342 31.2192 191.972 32.1684 192.771 32.9882L194.203 31.592L195.635 30.1958C195.187 29.7356 194.825 29.1968 194.55 28.5638L192.715 29.36ZM194.203 31.592L192.807 33.024C193.64 33.836 194.613 34.4632 195.705 34.9082L196.46 33.056L197.214 31.2038C196.578 30.9448 196.047 30.596 195.6 30.16L194.203 31.592ZM196.46 33.056L195.735 34.92C196.849 35.3534 198.033 35.56 199.268 35.56V33.56V31.56C198.486 31.56 197.798 31.4306 197.184 31.192L196.46 33.056ZM215.848 34.52L215.101 36.375L215.113 36.3799L215.125 36.3845L215.848 34.52ZM213.064 32.72L211.665 34.1487V34.1487L213.064 32.72ZM211.216 30.008L209.369 30.7752L209.374 30.7873L209.379 30.7992L211.216 30.008ZM211.216 23.192L209.379 22.4008L209.374 22.4127L209.369 22.4248L211.216 23.192ZM213.064 20.48L211.679 19.0372L211.672 19.0442L211.665 19.0513L213.064 20.48ZM215.872 18.704L216.596 20.5685L216.608 20.5639L216.62 20.559L215.872 18.704ZM222.808 18.68L222.085 20.5445L222.097 20.5492L222.109 20.5538L222.808 18.68ZM225.52 20.504L226.935 21.9182L228.278 20.575L227.005 19.1645L225.52 20.504ZM224.392 21.632L222.962 23.0299L224.376 24.4768L225.807 23.0462L224.392 21.632ZM222.112 20.12L221.394 21.9867L221.41 21.9927L221.426 21.9985L222.112 20.12ZM216.616 20.168L217.341 22.032L217.356 22.0262L217.371 22.0202L216.616 20.168ZM214.36 21.632L215.757 23.064L215.766 23.0552L215.775 23.0462L214.36 21.632ZM212.848 23.84L211.014 23.0438L211.01 23.0522L211.006 23.0607L212.848 23.84ZM212.848 29.384L211.001 30.1508L211.01 30.172L211.019 30.193L212.848 29.384ZM214.36 31.592L212.946 33.0062L212.955 33.0152L212.964 33.024L214.36 31.592ZM216.616 33.056L215.862 34.9082L215.877 34.9142L215.891 34.92L216.616 33.056ZM222.112 33.08L222.83 34.9467V34.9467L222.112 33.08ZM224.392 31.544L225.807 30.1298L224.376 28.6992L222.962 30.1461L224.392 31.544ZM225.52 32.672L227.005 34.0115L228.278 32.601L226.935 31.2578L225.52 32.672ZM222.808 34.52L223.532 36.3845V36.3845L222.808 34.52ZM219.352 35.144V33.144C218.311 33.144 217.391 32.9735 216.572 32.6555L215.848 34.52L215.125 36.3845C216.449 36.8985 217.865 37.144 219.352 37.144V35.144ZM215.848 34.52L216.596 32.665C215.754 32.3257 215.051 31.8662 214.464 31.2913L213.064 32.72L211.665 34.1487C212.646 35.1098 213.799 35.8503 215.101 36.375L215.848 34.52ZM213.064 32.72L214.464 31.2913C213.872 30.7111 213.402 30.0256 213.053 29.2168L211.216 30.008L209.379 30.7992C209.927 32.0704 210.689 33.1929 211.665 34.1487L213.064 32.72ZM211.216 30.008L213.063 29.2408C212.741 28.4659 212.568 27.5936 212.568 26.6H210.568H208.568C208.568 28.0704 208.827 29.4701 209.369 30.7752L211.216 30.008ZM210.568 26.6H212.568C212.568 25.6064 212.741 24.7341 213.063 23.9592L211.216 23.192L209.369 22.4248C208.827 23.7299 208.568 25.1296 208.568 26.6H210.568ZM211.216 23.192L213.053 23.9832C213.402 23.1744 213.872 22.4889 214.464 21.9087L213.064 20.48L211.665 19.0513C210.689 20.0071 209.927 21.1296 209.379 22.4008L211.216 23.192ZM213.064 20.48L214.449 21.9228C215.052 21.3444 215.761 20.8926 216.596 20.5685L215.872 18.704L215.149 16.8395C213.84 17.3474 212.677 18.0796 211.679 19.0372L213.064 20.48ZM215.872 18.704L216.62 20.559C217.433 20.2314 218.344 20.056 219.376 20.056V18.056V16.056C217.88 16.056 216.456 16.3126 215.125 16.849L215.872 18.704ZM219.376 18.056V20.056C220.359 20.056 221.257 20.2231 222.085 20.5445L222.808 18.68L223.532 16.8155C222.216 16.3049 220.825 16.056 219.376 16.056V18.056ZM222.808 18.68L222.109 20.5538C222.893 20.8462 223.523 21.2762 224.035 21.8435L225.52 20.504L227.005 19.1645C226.045 18.0998 224.868 17.3138 223.507 16.8062L222.808 18.68ZM225.52 20.504L224.106 19.0898L222.978 20.2178L224.392 21.632L225.807 23.0462L226.935 21.9182L225.52 20.504ZM224.392 21.632L225.823 20.2341C224.949 19.3403 223.941 18.659 222.799 18.2415L222.112 20.12L221.426 21.9985C221.947 22.189 222.459 22.5157 222.962 23.0299L224.392 21.632ZM222.112 20.12L222.83 18.2533C221.752 17.8386 220.611 17.64 219.424 17.64V19.64V21.64C220.158 21.64 220.809 21.7614 221.394 21.9867L222.112 20.12ZM219.424 19.64V17.64C218.179 17.64 216.984 17.8586 215.862 18.3158L216.616 20.168L217.371 22.0202C217.977 21.7734 218.654 21.64 219.424 21.64V19.64ZM216.616 20.168L215.891 18.304C214.775 18.738 213.787 19.3769 212.946 20.2178L214.36 21.632L215.775 23.0462C216.214 22.6071 216.729 22.27 217.341 22.032L216.616 20.168ZM214.36 21.632L212.964 20.2C212.132 21.0117 211.481 21.9657 211.014 23.0438L212.848 23.84L214.683 24.6362C214.951 24.0183 215.309 23.5003 215.757 23.064L214.36 21.632ZM212.848 23.84L211.006 23.0607C210.539 24.1663 210.32 25.3553 210.32 26.6H212.32H214.32C214.32 25.8287 214.454 25.1777 214.69 24.6193L212.848 23.84ZM212.32 26.6H210.32C210.32 27.8453 210.539 29.0369 211.001 30.1508L212.848 29.384L214.695 28.6172C214.454 28.0351 214.32 27.3707 214.32 26.6H212.32ZM212.848 29.384L211.019 30.193C211.486 31.2494 212.131 32.1909 212.946 33.0062L214.36 31.592L215.775 30.1778C215.31 29.7131 214.946 29.1826 214.677 28.575L212.848 29.384ZM214.36 31.592L212.964 33.024C213.797 33.836 214.769 34.4632 215.862 34.9082L216.616 33.056L217.371 31.2038C216.735 30.9448 216.204 30.596 215.757 30.16L214.36 31.592ZM216.616 33.056L215.891 34.92C217.006 35.3534 218.19 35.56 219.424 35.56V33.56V31.56C218.643 31.56 217.955 31.4306 217.341 31.192L216.616 33.056ZM219.424 33.56V35.56C220.611 35.56 221.752 35.3614 222.83 34.9467L222.112 33.08L221.394 31.2133C220.809 31.4386 220.158 31.56 219.424 31.56V33.56ZM222.112 33.08L222.83 34.9467C223.958 34.5131 224.955 33.8299 225.823 32.9419L224.392 31.544L222.962 30.1461C222.454 30.6661 221.931 31.0069 221.394 31.2133L222.112 33.08ZM224.392 31.544L222.978 32.9582L224.106 34.0862L225.52 32.672L226.935 31.2578L225.807 30.1298L224.392 31.544ZM225.52 32.672L224.035 31.3325C223.518 31.9055 222.879 32.3471 222.085 32.6555L222.808 34.52L223.532 36.3845C224.881 35.8609 226.05 35.0705 227.005 34.0115L225.52 32.672ZM222.808 34.52L222.085 32.6555C221.26 32.9757 220.355 33.144 219.352 33.144V35.144V37.144C220.814 37.144 222.213 36.8963 223.532 36.3845L222.808 34.52ZM230.842 30.824L228.843 30.8906L228.998 35.5385L232.266 32.2291L230.842 30.824ZM230.77 28.664L229.337 27.2697L228.743 27.8799L228.771 28.7306L230.77 28.664ZM240.946 18.2V16.2H240.101L239.513 16.8057L240.946 18.2ZM242.986 18.2L244.434 19.5803L247.657 16.2H242.986V18.2ZM235.57 25.976L234.123 24.5957L234.116 24.6035L234.108 24.6114L235.57 25.976ZM234.562 27.056L235.986 28.4611L236.005 28.4412L236.024 28.4206L234.562 27.056ZM229.306 35H227.306V37H229.306V35ZM229.306 18.2V16.2H227.306V18.2H229.306ZM231.082 18.2H233.082V16.2H231.082V18.2ZM231.082 35V37H233.082V35H231.082ZM241.378 35L239.868 36.3109L240.466 37H241.378V35ZM234.13 26.648L232.663 25.2892L231.445 26.6047L232.62 27.9589L234.13 26.648ZM235.33 25.352L236.857 24.0605L235.398 22.3351L233.863 23.9932L235.33 25.352ZM243.49 35V37H247.801L245.017 33.7085L243.49 35ZM230.842 30.824L232.841 30.7574L232.769 28.5974L230.77 28.664L228.771 28.7306L228.843 30.8906L230.842 30.824ZM230.77 28.664L232.204 30.0583L242.38 19.5943L240.946 18.2L239.513 16.8057L229.337 27.2697L230.77 28.664ZM240.946 18.2V20.2H242.986V18.2V16.2H240.946V18.2ZM242.986 18.2L241.539 16.8197L234.123 24.5957L235.57 25.976L237.018 27.3563L244.434 19.5803L242.986 18.2ZM235.57 25.976L234.108 24.6114L233.1 25.6914L234.562 27.056L236.024 28.4206L237.032 27.3406L235.57 25.976ZM234.562 27.056L233.139 25.6509L229.419 29.4189L230.842 30.824L232.266 32.2291L235.986 28.4611L234.562 27.056ZM229.306 35H231.306V18.2H229.306H227.306V35H229.306ZM229.306 18.2V20.2H231.082V18.2V16.2H229.306V18.2ZM231.082 18.2H229.082V35H231.082H233.082V18.2H231.082ZM231.082 35V33H229.306V35V37H231.082V35ZM241.378 35L242.889 33.6891L235.641 25.3371L234.13 26.648L232.62 27.9589L239.868 36.3109L241.378 35ZM234.13 26.648L235.598 28.0068L236.798 26.7108L235.33 25.352L233.863 23.9932L232.663 25.2892L234.13 26.648ZM235.33 25.352L233.803 26.6435L241.963 36.2915L243.49 35L245.017 33.7085L236.857 24.0605L235.33 25.352ZM243.49 35V33H241.378V35V37H243.49V35ZM247.953 25.712V23.712H245.953V25.712H247.953ZM256.833 25.712H258.833V23.712H256.833V25.712ZM256.833 27.224V29.224H258.833V27.224H256.833ZM247.953 27.224H245.953V29.224H247.953V27.224ZM248.145 33.464H246.145V35.464H248.145V33.464ZM258.249 33.464H260.249V31.464H258.249V33.464ZM258.249 35V37H260.249V35H258.249ZM246.369 35H244.369V37H246.369V35ZM246.369 18.2V16.2H244.369V18.2H246.369ZM257.889 18.2H259.889V16.2H257.889V18.2ZM257.889 19.736V21.736H259.889V19.736H257.889ZM248.145 19.736V17.736H246.145V19.736H248.145ZM247.953 25.712V27.712H256.833V25.712V23.712H247.953V25.712ZM256.833 25.712H254.833V27.224H256.833H258.833V25.712H256.833ZM256.833 27.224V25.224H247.953V27.224V29.224H256.833V27.224ZM247.953 27.224H249.953V25.712H247.953H245.953V27.224H247.953ZM248.145 33.464V35.464H258.249V33.464V31.464H248.145V33.464ZM258.249 33.464H256.249V35H258.249H260.249V33.464H258.249ZM258.249 35V33H246.369V35V37H258.249V35ZM246.369 35H248.369V18.2H246.369H244.369V35H246.369ZM246.369 18.2V20.2H257.889V18.2V16.2H246.369V18.2ZM257.889 18.2H255.889V19.736H257.889H259.889V18.2H257.889ZM257.889 19.736V17.736H248.145V19.736V21.736H257.889V19.736ZM248.145 19.736H246.145V33.464H248.145H250.145V19.736H248.145ZM265.688 35H263.688V37H265.688V35ZM265.688 19.736H267.688V17.736H265.688V19.736ZM259.783 19.736H257.783V21.736H259.783V19.736ZM259.783 18.2V16.2H257.783V18.2H259.783ZM273.368 18.2H275.368V16.2H273.368V18.2ZM273.368 19.736V21.736H275.368V19.736H273.368ZM267.464 19.736V17.736H265.464V19.736H267.464ZM267.464 35V37H269.464V35H267.464ZM265.688 35H267.688V19.736H265.688H263.688V35H265.688ZM265.688 19.736V17.736H259.783V19.736V21.736H265.688V19.736ZM259.783 19.736H261.783V18.2H259.783H257.783V19.736H259.783ZM259.783 18.2V20.2H273.368V18.2V16.2H259.783V18.2ZM273.368 18.2H271.368V19.736H273.368H275.368V18.2H273.368ZM273.368 19.736V17.736H267.464V19.736V21.736H273.368V19.736ZM267.464 19.736H265.464V35H267.464H269.464V19.736H267.464ZM267.464 35V33H265.688V35V37H267.464V35Z" fill="#0C4F7A" mask="url(#path-2-outside-1_29_35)"/>
<defs>
<linearGradient id="paint0_linear_29_35" x1="0" y1="27" x2="302" y2="27" gradientUnits="userSpaceOnUse">
<stop stop-color="#FDFCFB"/>
<stop offset="1" stop-color="#006FF2"/>
</linearGradient>
</defs>
</svg>
